<?xml version="1.0" standalone="no"?>
<!DOCTYPE svg PUBLIC "-//W3C//DTD SVG 1.1//EN" "http://www.w3.org/Graphics/SVG/1.1/DTD/svg11.dtd" >
<svg>
<metadata>
Created by FontForge 20120731 at Tue Aug 27 07:29:42 2019
 By www
Copyright (c) Lexmark International Incorporated 1991, All Rights Reserved. Copyright (c) IBM Corporation 1990, All Rights Reserved. Helvetica is a Trademark of Linotype AG and/or its Subsidiaries.
</metadata>
<defs>
<font id="Helvetica-Narrow" horiz-adv-x="556" >
  <font-face 
    font-family="Helvetica Narrow"
    font-weight="500"
    font-stretch="normal"
    units-per-em="1220"
    panose-1="0 0 0 0 0 0 0 0 0 0"
    ascent="976"
    descent="-244"
    x-height="524"
    cap-height="729"
    bbox="-174 -225 1050 943"
    underline-thickness="50"
    underline-position="-75"
    unicode-range="U+0020-FB04"
  />
<missing-glyph horiz-adv-x="278" 
 />
    <glyph glyph-name=".notdef" horiz-adv-x="278" 
 />
    <glyph glyph-name=".null" horiz-adv-x="0" 
 />
    <glyph glyph-name="nonmarkingreturn" horiz-adv-x="406" 
 />
    <glyph glyph-name="space" unicode=" " horiz-adv-x="278" 
 />
    <glyph glyph-name="exclam" unicode="!" horiz-adv-x="278" 
d="M208 729v-338l-22 -223h-40l-22 223v338h84zM208 104v-104h-84v104h84z" />
    <glyph glyph-name="quotedbl" unicode="&#x22;" horiz-adv-x="355" 
d="M52 729h93v-111l-27 -134h-39l-27 134v111zM212 729h93v-111l-27 -134h-39l-27 134v111z" />
    <glyph glyph-name="numbersign" unicode="#" 
d="M485 697l-36 -196h93v-68h-106l-31 -174h105v-68h-117l-39 -211h-76l38 211h-124l-39 -211h-76l38 211h-101v68h114l31 174h-108v68h121l36 196h76l-36 -196h125l35 196h77zM360 433h-124l-32 -174h125z" />
    <glyph glyph-name="dollar" unicode="$" 
d="M303 770v-54q85 -9 133 -51q30 -27 44.5 -61t15.5 -85h-80q-1 57 -31 90t-82 36v-248l15 -5l15 -4q87 -27 124 -55q61 -47 61 -137q0 -59 -24.5 -108t-67.5 -76q-47 -29 -123 -35v-103h-60v103q-58 5 -95.5 20.5t-65.5 48.5q-29 31 -39 64.5t-10 97.5h79l1 -11
q4 -51 13 -74t31 -41q31 -26 86 -36v272q-93 28 -127 52q-70 52 -70 145q0 86 50.5 137.5t146.5 63.5v54h60zM303 308v-261q52 4 83 29q50 42 50 107q0 49 -28.5 76t-104.5 49zM243 405v240q-56 -8 -86 -39t-30 -80q0 -90 116 -121z" />
    <glyph glyph-name="percent" unicode="%" horiz-adv-x="889" 
d="M370 514q0 -71 -49.5 -121t-120.5 -50q-70 0 -120.5 50.5t-50.5 120.5t50.5 120.5t120.5 50.5q71 0 120.5 -50t49.5 -121zM301 514q0 42 -29.5 71.5t-71.5 29.5t-72 -29.5t-30 -71.5t30 -71.5t72 -29.5t71.5 29.5t29.5 71.5zM859 152q0 -71 -49.5 -121t-120.5 -50
t-121 50t-50 121t50 120.5t121 49.5t120.5 -50t49.5 -120zM790 152q0 41 -29.5 70.5t-71.5 29.5q-43 0 -72.5 -29.5t-29.5 -70.5q0 -42 29.5 -71.5t72.5 -29.5q41 0 71 29.5t30 71.5zM609 709h66l-395 -729h-66z" />
    <glyph glyph-name="ampersand" unicode="&#x26;" horiz-adv-x="667" 
d="M493 334h80q-1 -95 -58 -183l122 -151h-109l-62 78q-48 -46 -77 -66q-55 -35 -131 -35q-93 0 -149.5 54.5t-56.5 144.5q0 68 34.5 113.5t127.5 98.5q-47 60 -64 94.5t-17 69.5q0 66 49.5 111.5t121.5 45.5q71 0 117 -44t46 -113q0 -54 -30 -92t-108 -82l133 -163
q31 58 31 119zM285 431q57 35 80 62.5t23 60.5q0 37 -24.5 61t-62.5 24q-39 0 -62.5 -23.5t-23.5 -62.5q0 -27 12 -48t58 -74zM418 137l-160 200q-52 -34 -74 -55q-48 -45 -48 -99q0 -53 38.5 -90.5t92.5 -37.5q73 0 151 82z" />
    <glyph glyph-name="quotesingle" unicode="'" horiz-adv-x="191" 
d="M49 729h93v-111l-27 -134h-39l-27 134v111z" />
    <glyph glyph-name="parenleft" unicode="(" horiz-adv-x="333" 
d="M236 729h55q-137 -221 -137 -470q0 -250 137 -471h-55q-75 98 -119 225.5t-44 245.5t44 245t119 225z" />
    <glyph glyph-name="parenright" unicode=")" horiz-adv-x="333" 
d="M93 -212h-55q137 223 137 470t-137 471h55q75 -98 119 -225.5t44 -245.5t-44 -245t-119 -225z" />
    <glyph glyph-name="asterisk" unicode="*" horiz-adv-x="389" 
d="M160 729h63l-5 -112l106 38l19 -59l-108 -30l69 -89l-50 -36l-62 93l-63 -93l-50 36l69 89l-108 30l19 59l106 -38z" />
    <glyph glyph-name="plus" unicode="+" horiz-adv-x="584" 
d="M534 379v-70h-207v-208h-70v208h-207v70h207v206h70v-206h207z" />
    <glyph glyph-name="comma" unicode="," horiz-adv-x="278" 
d="M87 104h105v-120q0 -131 -105 -131v38q34 1 47 20t13 68v21h-60v104z" />
    <glyph glyph-name="hyphen" unicode="-" horiz-adv-x="333" 
d="M284 312v-72h-238v72h238z" />
    <glyph glyph-name="period" unicode="." horiz-adv-x="278" 
d="M191 104v-104h-104v104h104z" />
    <glyph glyph-name="slash" unicode="/" horiz-adv-x="278" 
d="M229 729h55l-237 -749h-55z" />
    <glyph glyph-name="zero" unicode="0" 
d="M507 343q0 -138 -32 -220q-27 -71 -78.5 -108.5t-121.5 -37.5q-50 0 -93 20.5t-70 57.5q-36 49 -52 117q-17 83 -17 171q0 138 32 220q57 146 200 146q50 0 93 -20.5t70 -57.5q36 -49 52 -117q17 -83 17 -171zM275 50q142 0 142 292q0 289 -142 289t-142 -289
q0 -292 142 -292z" />
    <glyph glyph-name="one" unicode="1" 
d="M259 505h-157v63l20 3q88 13 116 36t51 102h58v-709h-88v505z" />
    <glyph glyph-name="two" unicode="2" 
d="M506 87v-87h-472q8 120 48 182t151 125l92 52q96 55 96 140q0 57 -40 95t-100 38q-40 0 -72.5 -18.5t-49.5 -50.5t-21 -100h-88q3 100 38 154q60 92 196 92q99 0 161 -55q66 -61 66 -153q0 -132 -150 -214l-100 -54q-70 -38 -102 -81q-19 -25 -26 -65h373z" />
    <glyph glyph-name="three" unicode="3" 
d="M221 325v75q83 1 117 15q57 23 57 95q0 58 -33 90t-92 32q-88 0 -119 -63q-15 -29 -16 -89h-88q3 91 37 144q57 85 185 85q101 0 158.5 -51.5t57.5 -142.5q0 -62 -36 -105q-24 -27 -63 -43q52 -19 76 -44q44 -46 44 -125q0 -101 -65.5 -161t-174.5 -60q-148 0 -203 103
q-24 43 -31 126h88q5 -77 41 -114t107 -37q70 0 109 37.5t39 104.5q0 62 -37.5 96t-104.5 33l-44 -1h-9z" />
    <glyph glyph-name="four" unicode="4" 
d="M327 170h-299v93l322 446h65v-460h105v-79h-105v-170h-88v170zM327 249v310h-2l-220 -310h222z" />
    <glyph glyph-name="five" unicode="5" 
d="M476 709v-87h-295l-28 -198q60 43 131 43q102 0 165.5 -65.5t63.5 -170.5q0 -112 -68 -183t-175 -71q-127 0 -192 85q-27 33 -43 112h88q31 -119 145 -119q72 0 113.5 44t41.5 120q0 79 -41.5 124.5t-112.5 45.5q-42 0 -71 -14.5t-60 -51.5h-81l53 386h366z" />
    <glyph glyph-name="six" unicode="6" 
d="M498 524h-88q-11 51 -42 79t-77 28q-76 0 -117 -69.5t-41 -199.5h2q55 79 161 79q95 0 156 -63t61 -162q0 -104 -65.5 -171.5t-166.5 -67.5q-121 0 -178 88q-60 89 -60 258q0 186 64 285q68 101 190 101q81 0 134.5 -49t66.5 -136zM423 211q0 70 -37.5 111t-100.5 41
q-65 0 -106 -41.5t-41 -107.5q0 -68 41 -113.5t103 -45.5t101.5 44t39.5 112z" />
    <glyph glyph-name="seven" unicode="7" 
d="M520 709v-74l-24 -33q-83 -117 -122 -192q-104 -194 -142 -410h-94l8 31q37 149 85 257q63 139 172 297l26 37h-383v87h474z" />
    <glyph glyph-name="eight" unicode="8" 
d="M37 197q0 72 50 126q25 28 71 50q-45 29 -63 49q-33 39 -33 98q0 83 59.5 136t153.5 53q95 0 154 -52.5t59 -136.5q0 -50 -21 -82t-76 -65q122 -60 122 -176q0 -98 -66 -159t-172 -61t-172 61t-66 159zM152 519q0 -50 33.5 -80.5t89.5 -30.5t89.5 30.5t33.5 80.5
q0 51 -33.5 81.5t-89.5 30.5t-89.5 -30.5t-33.5 -81.5zM127 195q0 -63 41 -101.5t107 -38.5t107 38.5t41 101.5q0 62 -40.5 100.5t-107.5 38.5t-107.5 -38.5t-40.5 -100.5z" />
    <glyph glyph-name="nine" unicode="9" 
d="M53 162h88q11 -51 42 -79t77 -28q93 0 136 110q22 57 22 159h-2q-63 -79 -160 -79q-96 0 -157 63t-61 162q0 104 65.5 171.5t166.5 67.5q120 0 179 -88q60 -89 60 -258q0 -186 -64 -285q-68 -101 -191 -101q-81 0 -134.5 49t-66.5 136zM128 475q0 -69 37.5 -110.5
t100.5 -41.5q65 0 106 41.5t41 107.5q0 69 -41 114.5t-103 45.5t-101.5 -44t-39.5 -113z" />
    <glyph glyph-name="colon" unicode=":" horiz-adv-x="278" 
d="M214 104v-104h-104v104h104zM214 524v-104h-104v104h104z" />
    <glyph glyph-name="semicolon" unicode=";" horiz-adv-x="278" 
d="M110 104h105v-120q0 -131 -105 -131v38q34 1 47 20t13 68v21h-60v104zM215 524v-104h-104v104h104z" />
    <glyph glyph-name="less" unicode="&#x3c;" horiz-adv-x="584" 
d="M45 309v68l489 207v-79l-394 -161l394 -163v-80z" />
    <glyph glyph-name="equal" unicode="=" horiz-adv-x="584" 
d="M534 464v-70h-484v70h484zM534 292v-70h-484v70h484z" />
    <glyph glyph-name="greater" unicode="&#x3e;" horiz-adv-x="584" 
d="M539 377v-69l-489 -207v80l394 161l-394 163v79z" />
    <glyph glyph-name="question" unicode="?" 
d="M330 199h-90v55q0 69 65 127l39 36q75 67 75 132q0 52 -35 83t-93 31q-82 0 -112 -58q-17 -34 -17 -98h-85q0 234 219 234q97 0 155 -52t58 -140q0 -50 -22 -89t-78 -90q-41 -39 -46 -45q-33 -36 -33 -79v-47zM330 104v-104h-90v104h90z" />
    <glyph glyph-name="at" unicode="@" horiz-adv-x="1015" 
d="M665 501h83l-90 -280q-12 -35 -12 -51q0 -17 15 -30t35 -13q64 0 116 70.5t52 158.5q0 126 -104 217t-248 91q-158 0 -275.5 -117t-117.5 -274q0 -143 108 -240.5t266 -97.5q79 0 194 32l27 -67q-112 -42 -225 -42q-189 0 -322 116.5t-133 282.5q0 99 42 193.5t116 161.5
q66 60 155 94.5t179 34.5q174 0 299.5 -109.5t125.5 -262.5q0 -123 -86 -223q-76 -89 -186 -89q-96 0 -110 77q-66 -72 -142 -72q-70 0 -116.5 53t-46.5 132q0 108 78.5 191.5t179.5 83.5q83 0 121 -87zM609 369q0 38 -26.5 63.5t-66.5 25.5q-64 0 -113 -64.5t-49 -149.5
q0 -50 29 -84t71 -34q38 0 71.5 31t56.5 87q27 71 27 125z" />
    <glyph glyph-name="A" unicode="A" horiz-adv-x="667" 
d="M474 219h-281l-77 -219h-99l260 729h120l256 -729h-104zM448 297l-111 332h-2l-119 -332h232z" />
    <glyph glyph-name="B" unicode="B" horiz-adv-x="667" 
d="M79 0v729h296q101 0 158 -51q58 -52 58 -134q0 -112 -101 -159q70 -26 101.5 -68.5t31.5 -108.5q0 -88 -56 -147q-58 -61 -159 -61h-329zM173 415h179q70 0 106 26q40 29 40 90q0 59 -40 90q-33 26 -106 26h-179v-232zM173 82h226q63 0 98 35q33 35 33 90t-33 91
q-34 35 -98 35h-226v-251z" />
    <glyph glyph-name="C" unicode="C" horiz-adv-x="722" 
d="M662 503h-95q-15 75 -53 110q-48 46 -144 46q-106 0 -167.5 -81.5t-61.5 -220.5q0 -137 64 -217.5t173 -80.5q59 0 103.5 24.5t66.5 69.5q22 44 33 113h96q-33 -289 -297 -289q-145 0 -227 85q-105 111 -105 294q0 184 102 295q82 90 230 90q238 0 282 -238z" />
    <glyph glyph-name="D" unicode="D" horiz-adv-x="722" 
d="M89 0v729h281q139 0 218 -97t79 -267t-79.5 -267.5t-217.5 -97.5h-281zM183 82h171q107 0 165 73q55 71 55 209q0 136 -55 210q-56 73 -165 73h-171v-565z" />
    <glyph glyph-name="E" unicode="E" horiz-adv-x="667" 
d="M183 332v-250h430v-82h-523v729h505v-82h-412v-233h397v-82h-397z" />
    <glyph glyph-name="F" unicode="F" horiz-adv-x="611" 
d="M183 332v-332h-93v729h489v-82h-396v-233h348v-82h-348z" />
    <glyph glyph-name="G" unicode="G" horiz-adv-x="778" 
d="M709 385v-389h-59l-23 97q-104 -116 -249 -116q-148 0 -241 106t-93 274q0 98 34.5 180.5t97.5 133.5q86 70 218 70q125 0 205.5 -61t99.5 -172h-95q-15 70 -71.5 110.5t-139.5 40.5q-115 0 -185.5 -81t-70.5 -215q0 -68 21 -130t56 -100q68 -74 184 -74q100 0 164.5 63
t64.5 161v20h-222v82h304z" />
    <glyph glyph-name="H" unicode="H" horiz-adv-x="722" 
d="M551 332h-374v-332h-94v729h93v-315h375v315h93v-729h-93v332z" />
    <glyph glyph-name="I" unicode="I" horiz-adv-x="278" 
d="M194 729v-729h-94v729h94z" />
    <glyph glyph-name="J" unicode="J" horiz-adv-x="500" 
d="M333 729h93v-547q0 -93 -55 -148q-56 -57 -151 -57q-94 0 -148.5 52t-54.5 141v64h95v-47q0 -62 25 -94q30 -38 84 -38q28 0 52 12.5t37 32.5q23 35 23 116v513z" />
    <glyph glyph-name="K" unicode="K" horiz-adv-x="667" 
d="M173 361l362 368h120l-297 -297l300 -432h-110l-257 374l-118 -118v-256h-94v729h94v-368z" />
    <glyph glyph-name="L" unicode="L" 
d="M173 729v-647h360v-82h-453v729h93z" />
    <glyph glyph-name="M" unicode="M" horiz-adv-x="833" 
d="M466 0h-98l-204 611h-2v-611h-88v729h129l213 -635h2l213 635h129v-729h-88v611h-2z" />
    <glyph glyph-name="N" unicode="N" horiz-adv-x="722" 
d="M646 729v-729h-105l-375 591h-2v-591h-88v729h101l379 -596h2v596h88z" />
    <glyph glyph-name="O" unicode="O" horiz-adv-x="778" 
d="M742 359q0 -94 -33 -174t-93 -131q-91 -77 -226 -77q-158 0 -255 105t-97 277t97 277t255 105q135 0 226 -77q60 -51 93 -131t33 -174zM649 359q0 135 -71 217.5t-188 82.5t-188 -82.5t-71 -217.5t71 -217.5t188 -82.5t188 82.5t71 217.5z" />
    <glyph glyph-name="P" unicode="P" horiz-adv-x="667" 
d="M185 309v-309h-94v729h301q108 0 166.5 -55.5t58.5 -158.5q0 -97 -63 -154q-58 -52 -141 -52h-228zM185 391h193q71 0 107 36q35 35 35 92q0 60 -37.5 94t-104.5 34h-193v-256z" />
    <glyph glyph-name="Q" unicode="Q" horiz-adv-x="778" 
d="M733 -1l-47 -58l-106 87q-85 -51 -190 -51q-158 0 -255 105t-97 277t97 277t255 105t255 -105t97 -275q0 -96 -34 -179q-24 -57 -69 -106zM481 205l89 -73q34 37 53 84q26 64 26 144q0 134 -71.5 216.5t-187.5 82.5q-117 0 -188 -82.5t-71 -217.5t71 -217.5t187 -82.5
q60 0 120 28l-75 62z" />
    <glyph glyph-name="R" unicode="R" horiz-adv-x="722" 
d="M186 314v-314h-93v729h336q107 0 164.5 -50t57.5 -143q0 -65 -26.5 -105t-88.5 -71q48 -19 72 -52q14 -20 20 -48.5t7 -89.5q3 -83 12 -107t32 -40v-23h-113q-10 24 -14 46q-7 36 -7 69l1 73q2 126 -120 126h-240zM186 396h225q71 0 105 28q38 30 38 98q0 65 -38 97
q-31 28 -105 28h-225v-251z" />
    <glyph glyph-name="S" unicode="S" horiz-adv-x="667" 
d="M596 515h-88q-1 72 -48 110t-134 38q-74 0 -118.5 -34t-44.5 -89q0 -47 33 -71q28 -21 87 -37l183 -49q74 -20 114.5 -68t40.5 -115q0 -47 -21.5 -92.5t-58.5 -74.5q-71 -56 -205 -56q-168 0 -245 104q-42 54 -43 151h88v-6q0 -60 38 -106q51 -61 167 -61q90 0 135 31
q52 36 52 101q0 83 -134 118l-181 48q-143 37 -143 170q0 99 69.5 156.5t189.5 57.5q117 0 186 -52q38 -29 59.5 -72t21.5 -90v-12z" />
    <glyph glyph-name="T" unicode="T" horiz-adv-x="611" 
d="M352 647v-647h-93v647h-240v82h573v-82h-240z" />
    <glyph glyph-name="U" unicode="U" horiz-adv-x="722" 
d="M552 729h93v-512q0 -110 -76.5 -175t-204.5 -65q-130 0 -204.5 64.5t-74.5 175.5v512h93v-512q0 -80 53 -120q53 -38 133 -38q88 0 138 42t50 116v512z" />
    <glyph glyph-name="V" unicode="V" horiz-adv-x="667" 
d="M392 0h-100l-262 729h100l213 -617h2l201 617h99z" />
    <glyph glyph-name="W" unicode="W" horiz-adv-x="944" 
d="M744 0h-102l-167 599h-2l-162 -599h-102l-187 729h104l136 -592h2l161 592h100l165 -592h2l133 592h104z" />
    <glyph glyph-name="X" unicode="X" horiz-adv-x="667" 
d="M391 374l258 -374h-115l-199 304l-200 -304h-113l258 374l-242 355h113l187 -286l188 286h111z" />
    <glyph glyph-name="Y" unicode="Y" horiz-adv-x="667" 
d="M337 374l209 355h115l-277 -443v-286h-94v286l-277 443h115z" />
    <glyph glyph-name="Z" unicode="Z" horiz-adv-x="611" 
d="M581 729v-84l-436 -563h438v-82h-555v82l438 565h-410v82h525z" />
    <glyph glyph-name="bracketleft" unicode="[" horiz-adv-x="278" 
d="M250 729v-72h-103v-797h103v-72h-186v941h186z" />
    <glyph glyph-name="backslash" unicode="\" horiz-adv-x="278" 
d="M47 729l237 -749h-55l-237 749h55z" />
    <glyph glyph-name="bracketright" unicode="]" horiz-adv-x="278" 
d="M23 -212v72h103v797h-103v72h186v-941h-186z" />
    <glyph glyph-name="asciicircum" unicode="^" horiz-adv-x="469" 
d="M197 709h73l155 -380h-69l-122 300l-121 -300h-69z" />
    <glyph glyph-name="underscore" unicode="_" 
d="M-50 -75h656v-50h-656v50z" />
    <glyph glyph-name="grave" unicode="`" horiz-adv-x="333" 
d="M135 740l96 -148h-60l-149 148h113z" />
    <glyph glyph-name="a" unicode="a" 
d="M535 49v-63q-36 -9 -56 -9q-41 0 -62 18.5t-25 58.5q-84 -77 -178 -77q-79 0 -125.5 42t-46.5 114q0 78 52 116q48 35 148 47l60 8q48 6 67 19t19 39v22q0 78 -117 78q-112 0 -122 -93h-84q4 73 36 109q55 61 173 61q97 0 147.5 -36.5t50.5 -106.5v-308q0 -41 45 -41
q9 0 18 2zM388 165v94q-31 -14 -88 -23l-46 -6q-67 -11 -96 -33t-29 -63q0 -40 27.5 -62t76.5 -22q71 0 123 47q32 29 32 68z" />
    <glyph glyph-name="b" unicode="b" 
d="M54 729h84v-276h2q54 86 159 86q104 0 164 -73.5t60 -201.5q0 -130 -62 -208.5t-166 -78.5q-108 0 -164 90h-2v-67h-75v729zM436 258q0 92 -42 147.5t-111 55.5q-67 0 -106.5 -55.5t-39.5 -147.5t39.5 -147.5t106.5 -55.5q69 0 111 55.5t42 147.5z" />
    <glyph glyph-name="c" unicode="c" horiz-adv-x="500" 
d="M471 348h-84q-7 55 -39 84.5t-85 29.5q-68 0 -106.5 -55.5t-38.5 -153.5q0 -93 39 -146t108 -53q107 0 128 126h84q-7 -97 -63.5 -150t-150.5 -53q-107 0 -169.5 74.5t-62.5 201.5q0 131 63.5 208.5t170.5 77.5q114 0 171 -78q29 -43 35 -113z" />
    <glyph glyph-name="d" unicode="d" 
d="M495 729v-729h-74v69h-2q-61 -92 -165 -92q-107 0 -167.5 76.5t-60.5 210.5q0 125 61.5 200t163.5 75q108 0 158 -81h2v271h84zM412 258q0 92 -39.5 147.5t-106.5 55.5q-69 0 -111 -55.5t-42 -147.5t42 -147.5t111 -55.5q67 0 106.5 55t39.5 148z" />
    <glyph glyph-name="e" unicode="e" 
d="M513 234h-386q1 -71 28 -112q43 -68 126 -68q102 0 137 105h84q-16 -86 -75 -134t-149 -48q-111 0 -174.5 74t-63.5 203q0 130 65 207.5t175 77.5q53 0 100 -21t77 -58t43 -86.5t13 -128.5v-11zM129 302h297q1 65 -40 112.5t-107 47.5q-64 0 -104.5 -43t-45.5 -117z" />
    <glyph glyph-name="f" unicode="f" horiz-adv-x="278" 
d="M258 524v-68h-86v-456h-84v456h-70v68h70v89q0 56 32.5 87.5t90.5 31.5q23 0 47 -5v-69h-9l-21 1q-56 3 -56 -53v-82h86z" />
    <glyph glyph-name="g" unicode="g" 
d="M412 524h76v-438q0 -94 -12 -148t-42 -89q-56 -67 -179 -67q-92 0 -147 42t-62 116h84q6 -39 32 -60q37 -28 96 -28q83 0 116 49q30 43 30 143v27h-2q-63 -94 -156 -94q-89 0 -151 70q-66 74 -66 206q0 128 61.5 207t161.5 79q99 0 158 -91h2v76zM404 258q0 96 -37.5 150
t-104.5 54q-68 0 -107 -54.5t-39 -149.5t39 -149.5t107 -54.5q67 0 104.5 54t37.5 150z" />
    <glyph glyph-name="h" unicode="h" 
d="M70 729h84v-277h2q34 48 71.5 67.5t93.5 19.5q76 0 120.5 -38.5t44.5 -104.5v-396h-84v363q0 55 -33 80q-31 23 -74 23q-58 0 -98 -43q-43 -46 -43 -134v-289h-84v729z" />
    <glyph glyph-name="i" unicode="i" horiz-adv-x="222" 
d="M150 524v-524h-84v524h84zM150 729v-105h-84v105h84z" />
    <glyph glyph-name="j" unicode="j" horiz-adv-x="222" 
d="M69 524h84v-633q0 -109 -142 -109q-14 0 -29 3v71q9 -1 19 -1q40 0 54 14.5t14 54.5v600zM153 729v-105h-84v105h84z" />
    <glyph glyph-name="k" unicode="k" horiz-adv-x="500" 
d="M142 303l221 221h107l-182 -181l214 -343h-103l-177 284l-80 -79v-205h-84v729h84v-426z" />
    <glyph glyph-name="l" unicode="l" horiz-adv-x="222" 
d="M152 729v-729h-84v729h84z" />
    <glyph glyph-name="m" unicode="m" horiz-adv-x="833" 
d="M147 524v-74h2q59 89 160 89q96 0 140 -80q38 44 74 62t88 18q74 0 113.5 -37.5t39.5 -108.5v-393h-84v361q0 50 -26 77.5t-72 27.5q-52 0 -87.5 -40t-35.5 -97v-329h-84v361q0 50 -25.5 77.5t-72.5 27.5q-51 0 -87 -40t-36 -97v-329h-84v524h77z" />
    <glyph glyph-name="n" unicode="n" 
d="M70 524h77v-88h2q33 55 73.5 79t98.5 24q76 0 121 -39t45 -104v-396h-84v363q0 47 -29 75t-78 28q-64 0 -103 -48.5t-39 -128.5v-289h-84v524z" />
    <glyph glyph-name="o" unicode="o" 
d="M510 258q0 -133 -62.5 -207t-174.5 -74t-174.5 74t-62.5 207t62.5 207t174.5 74t174.5 -74t62.5 -207zM423 258q0 95 -40 149.5t-110 54.5t-110 -54.5t-40 -149.5t40 -149.5t110 -54.5t110 54.5t40 149.5z" />
    <glyph glyph-name="p" unicode="p" 
d="M54 -218v742h77v-79h2q56 94 165 94q104 0 164.5 -77t60.5 -209q0 -125 -61 -200.5t-163 -75.5q-98 0 -159 78h-2v-273h-84zM436 258q0 92 -41.5 147.5t-110.5 55.5q-67 0 -106.5 -55.5t-39.5 -147.5q0 -93 39.5 -148t106.5 -55q69 0 110.5 55.5t41.5 147.5z" />
    <glyph glyph-name="q" unicode="q" 
d="M495 -218h-84v278h-2q-54 -83 -159 -83q-104 0 -164 73.5t-60 201.5q0 130 62 208.5t166 78.5q108 0 165 -85h2v70h74v-742zM412 258q0 92 -39.5 147.5t-106.5 55.5q-69 0 -111 -55.5t-42 -147.5t42 -147.5t111 -55.5q67 0 106.5 55t39.5 148z" />
    <glyph glyph-name="r" unicode="r" horiz-adv-x="333" 
d="M69 524h77v-95h2q35 59 68 84.5t73 25.5q11 0 32 -3v-85q-75 -1 -109 -26q-59 -41 -59 -153v-272h-84v524z" />
    <glyph glyph-name="s" unicode="s" horiz-adv-x="500" 
d="M438 378h-88q-1 41 -25 60q-30 24 -79 24q-52 0 -82 -21t-30 -58q0 -28 23 -45.5t74 -29.5l80 -19q75 -18 106 -46q42 -39 42 -100q0 -76 -58.5 -121t-157.5 -45q-203 0 -209 179h88q6 -47 24 -67q33 -35 104 -35q55 0 88.5 22.5t33.5 59.5q0 29 -19 46t-62 27l-78 19
q-92 23 -125 52q-41 35 -41 99q0 73 54.5 116.5t145.5 43.5t140.5 -42t50.5 -119z" />
    <glyph glyph-name="t" unicode="t" horiz-adv-x="278" 
d="M254 524v-68h-85v-359q0 -28 9 -37.5t37 -9.5q24 0 39 4v-70q-39 -7 -68 -7q-101 0 -101 83v396h-71v68h71v144h84v-144h85z" />
    <glyph glyph-name="u" unicode="u" 
d="M482 0h-77v73h-2q-52 -96 -171 -96q-77 0 -122 38.5t-45 104.5v404h84v-371q0 -47 29 -75t78 -28q65 0 103.5 48t38.5 129v297h84v-524z" />
    <glyph glyph-name="v" unicode="v" horiz-adv-x="500" 
d="M285 0h-91l-184 524h95l138 -425h2l147 425h94z" />
    <glyph glyph-name="w" unicode="w" horiz-adv-x="722" 
d="M554 0h-95l-105 411h-2l-100 -411h-94l-152 524h92l106 -408h2l99 408h102l102 -408h2l103 408h94z" />
    <glyph glyph-name="x" unicode="x" horiz-adv-x="500" 
d="M292 271l181 -271h-97l-131 201l-133 -201h-95l185 267l-175 257h95l126 -190l126 190h94z" />
    <glyph glyph-name="y" unicode="y" horiz-adv-x="500" 
d="M388 524h90l-233 -634q-22 -57 -57 -83q-34 -25 -78 -25q-31 0 -56 13v75q27 -6 45 -6q48 0 67 51l31 83l-177 526h90l132 -408h2z" />
    <glyph glyph-name="z" unicode="z" horiz-adv-x="500" 
d="M443 524v-74l-311 -377h325v-73h-426v75l313 376h-292v73h391z" />
    <glyph glyph-name="braceleft" unicode="{" horiz-adv-x="334" 
d="M276 729v-65h-15q-37 0 -50 -14t-13 -53v-181q0 -69 -18 -103.5t-64 -53.5q40 -19 57 -49q25 -44 25 -109v-181q0 -39 13 -53t50 -14h15v-65h-46q-52 0 -80.5 35t-28.5 97v166q0 70 -17 99.5t-61 38.5v69q42 8 60 38q18 29 18 100v166q0 62 28.5 97t80.5 35h46z" />
    <glyph glyph-name="bar" unicode="|" horiz-adv-x="260" 
d="M100 729h60v-941h-60v941z" />
    <glyph glyph-name="braceright" unicode="}" horiz-adv-x="334" 
d="M29 -212v65h16q37 0 50.5 14t13.5 53v181q0 66 25 109q17 30 57 48q-40 19 -57 49q-25 44 -25 109v181q0 39 -13.5 53t-50.5 14h-16v65h47q52 0 81 -34.5t29 -97.5v-167q0 -68 16.5 -98t59.5 -39v-69q-43 -9 -59.5 -39t-16.5 -99v-166q0 -63 -29 -97.5t-81 -34.5h-47z
" />
    <glyph glyph-name="asciitilde" unicode="~" horiz-adv-x="584" 
d="M455 401h53q0 -143 -106 -143q-41 0 -80 26l-98 63q-25 14 -43 14q-45 0 -53 -78h-53q9 145 109 145q27 0 53 -16l117 -69q29 -17 50 -17q55 0 51 75z" />
    <glyph glyph-name="exclamdown" unicode="&#xa1;" horiz-adv-x="333" 
d="M205 -205h-84v338l22 223h40l22 -223v-338zM205 420h-84v104h84v-104z" />
    <glyph glyph-name="cent" unicode="&#xa2;" 
d="M312 462v-409q50 7 77 36.5t37 90.5h84q-15 -189 -198 -203v-97h-42v98q-102 9 -160 82.5t-58 192.5q0 122 58.5 198t159.5 87v90h42v-89q77 -6 126 -46q58 -47 66 -145h-84q-12 105 -108 114zM270 55v406q-131 -24 -131 -208q0 -85 34.5 -136.5t96.5 -61.5z" />
    <glyph glyph-name="sterling" unicode="&#xa3;" 
d="M366 376v-55h-136q15 -43 15 -71q0 -49 -43 -106q-28 -36 -75 -81l2 -2q55 39 120 39q35 0 82 -15q56 -16 79 -16q38 0 83 30l42 -66q-56 -56 -131 -56q-45 0 -106 21l-40 14q-35 11 -66 11q-51 0 -109 -37l-48 66q52 45 75 73q50 58 50 118q0 41 -24 78h-110v55h81
q-25 41 -35 62q-18 36 -18 77q0 91 69 152.5t170 61.5q63 0 113.5 -26t77.5 -73q27 -46 28 -133h-88q-1 64 -25 101q-34 53 -111 53q-64 0 -102.5 -35t-38.5 -92q0 -32 14 -66q10 -20 30 -54l15 -28h160z" />
    <glyph glyph-name="currency" unicode="&#xa4;" 
d="M485 190l-58 -54l-53 53q-41 -30 -100 -30q-53 0 -94 25l-51 -51l-56 57l48 49q-32 44 -32 102q0 57 32 102l-54 55l56 53l55 -55q42 26 97 26q57 0 98 -28l59 53l57 -58l-55 -55q26 -40 26 -93q0 -49 -29 -97zM381 340q0 43 -31 74t-75 31q-45 0 -76 -31t-31 -74
t31 -73.5t76 -30.5q44 0 75 30.5t31 73.5z" />
    <glyph glyph-name="yen" unicode="&#xa5;" 
d="M495 354v-51h-170v-77h170v-51h-170v-175h-88v175h-172v51h172v77h-172v51h151l-205 355h85l185 -322l179 322h85l-201 -355h151z" />
    <glyph glyph-name="brokenbar" unicode="&#xa6;" horiz-adv-x="260" 
d="M100 729h60v-401h-60v401zM100 189h60v-401h-60v401z" />
    <glyph glyph-name="section" unicode="&#xa7;" 
d="M464 524h-83v6v12q-2 110 -97 110q-38 0 -63.5 -24t-25.5 -61q0 -22 12.5 -39t44.5 -38l146 -94q59 -38 83.5 -75.5t24.5 -91.5q0 -115 -108 -156q29 -34 40.5 -60t11.5 -58q0 -73 -53 -120.5t-134 -47.5q-85 0 -135 51t-50 137v11h85v-4v-3q0 -54 27 -84.5t75 -30.5
q42 0 68.5 24t26.5 62q0 50 -54 88l-170 117q-49 34 -70.5 71t-21.5 86q0 50 24.5 85.5t80.5 64.5q-44 50 -44 101q0 70 53.5 118t130.5 48q79 0 127 -48.5t48 -128.5v-20v-8zM189 229l166 -123q72 39 72 103q0 60 -73 111l-160 109q-39 -26 -55 -48.5t-16 -52.5
q0 -29 15 -53q9 -15 51 -46z" />
    <glyph glyph-name="dieresis" unicode="&#xa8;" horiz-adv-x="333" 
d="M134 708v-103h-104v103h104zM296 708v-103h-104v103h104z" />
    <glyph glyph-name="copyright" unicode="&#xa9;" horiz-adv-x="737" 
d="M544 437h-71q-13 50 -35.5 71.5t-62.5 21.5q-57 0 -91 -46.5t-34 -125.5q0 -80 36 -124q36 -46 90 -46q55 0 84 56q14 27 21 68h71q-16 -79 -41 -116q-49 -70 -136 -70q-86 0 -140 64t-54 167q0 106 54 170.5t143 64.5q131 0 166 -155zM369 -22q-158 0 -270 112t-112 270
t112 270t270 112t270 -112t112 -270t-112 -270t-270 -112zM369 40q130 0 222 93.5t92 226.5t-92 226.5t-222 93.5t-222 -93.5t-92 -226.5q0 -132 92 -226t222 -94z" />
    <glyph glyph-name="ordfeminine" unicode="&#xaa;" horiz-adv-x="370" 
d="M320 354v-51h-277v51h277zM333 449v-44q-14 -6 -31 -6q-48 0 -56 43q-49 -43 -105 -43q-48 0 -76 26t-28 70q0 63 57 87q18 8 55 13q12 2 45 5q28 2 38.5 9t10.5 24v13q0 44 -67 44q-34 0 -48.5 -12t-19.5 -44h-59q3 108 128 108q67 0 99 -29q24 -21 24 -65v-179
q0 -23 23 -23q4 0 10 3zM243 516v52q-13 -6 -49 -12l-27 -4q-39 -5 -55.5 -17.5t-16.5 -36.5q0 -47 58 -47q36 0 63 19.5t27 45.5z" />
    <glyph glyph-name="guillemotleft" unicode="&#xab;" 
d="M98 227v89l152 122v-83l-106 -83l106 -83v-83zM303 227v89l152 122v-83l-106 -83l106 -83v-83z" />
    <glyph glyph-name="logicalnot" unicode="&#xac;" horiz-adv-x="584" 
d="M40 478h504v-270h-64v206h-440v64z" />
    <glyph glyph-name="registered" unicode="&#xae;" horiz-adv-x="737" 
d="M272 325v-185h-70v445h206q141 0 141 -124q0 -36 -11.5 -57.5t-42.5 -43.5q28 -19 35.5 -38t9.5 -74q2 -46 5.5 -59.5t17.5 -23.5v-25h-79q-17 39 -15 74l1 46q2 65 -64 65h-134zM272 388h129q40 0 57.5 16t17.5 53q0 34 -18 49.5t-57 15.5h-129v-134zM369 -22
q-158 0 -270 112t-112 270t112 270t270 112t270 -112t112 -270t-112 -270t-270 -112zM369 40q130 0 222 93.5t92 226.5t-92 226.5t-222 93.5t-222 -93.5t-92 -226.5q0 -132 92 -226t222 -94z" />
    <glyph glyph-name="macron" unicode="&#xaf;" horiz-adv-x="333" 
d="M302 694v-73h-274v73h274z" />
    <glyph glyph-name="degree" unicode="&#xb0;" horiz-adv-x="400" 
d="M50 559q0 62 44 106t106 44q63 0 106.5 -44t43.5 -106t-44 -106t-106 -44t-106 43.5t-44 106.5zM92 559q0 -45 31.5 -76.5t76.5 -31.5t76.5 31.5t31.5 76.5t-31.5 76.5t-76.5 31.5t-76.5 -31.5t-31.5 -76.5z" />
    <glyph glyph-name="plusminus" unicode="&#xb1;" horiz-adv-x="584" 
d="M534 453v-70h-207v-208h-70v208h-207v70h207v206h70v-206h207zM534 96v-70h-484v70h484z" />
    <glyph glyph-name="twosuperior" unicode="&#xb2;" horiz-adv-x="333" 
d="M316 342v-58h-304q5 76 29.5 112t97.5 75l58 31q59 32 59 79q0 32 -24 53.5t-61 21.5q-51 0 -74 -39q-10 -17 -13 -60h-62q1 63 24 96q39 56 127 56q64 0 105 -35t41 -91q0 -80 -96 -129l-63 -32q-32 -16 -47 -33t-26 -47h229z" />
    <glyph glyph-name="threesuperior" unicode="&#xb3;" horiz-adv-x="333" 
d="M128 476v51q64 0 87 12.5t23 46.5t-19.5 52t-55.5 18q-52 0 -73 -35q-9 -18 -9 -54h-62q2 142 143 142q64 0 101.5 -32t37.5 -88q0 -59 -56 -85q70 -23 70 -100q0 -61 -41.5 -97.5t-112.5 -36.5q-146 0 -152 142h62q2 -46 24 -67.5t67 -21.5q43 0 66.5 21t23.5 59
q0 73 -91 73h-24h-9z" />
    <glyph glyph-name="acute" unicode="&#xb4;" horiz-adv-x="333" 
d="M188 740h113l-149 -148h-60z" />
    <glyph glyph-name="mu" unicode="&#xb5;" horiz-adv-x="558" 
d="M404 524h84v-524h-75v73h-2q-63 -96 -168 -96q-51 0 -89 19v-214h-83v742h84v-371q0 -34 13.5 -57t34.5 -32t34 -11.5t25 -2.5q28 0 56.5 12.5t45.5 35.5q23 29 31.5 58.5t8.5 84.5v283z" />
    <glyph glyph-name="paragraph" unicode="&#xb6;" horiz-adv-x="537" 
d="M534 729v-64h-57v-842h-64v842h-126v-842h-64v436q-76 4 -126 44q-39 31 -60 80.5t-21 105.5q0 101 64.5 170.5t158.5 69.5h295z" />
    <glyph glyph-name="periodcentered" unicode="&#xb7;" horiz-adv-x="278" 
d="M177 408v-104h-104v104h104z" />
    <glyph glyph-name="cedilla" unicode="&#xb8;" horiz-adv-x="333" 
d="M165 0h38l-23 -56q13 2 27 2q38 0 59 -17.5t21 -49.5q0 -43 -33 -68t-90 -25q-50 0 -117 30l-8 4l21 40l9 -4q57 -29 89 -29q23 0 38.5 13t15.5 32q0 37 -46 37q-16 0 -31 -7l-12 6z" />
    <glyph glyph-name="onesuperior" unicode="&#xb9;" horiz-adv-x="333" 
d="M153 580h-99v45l15 2q56 8 73 20.5t30 61.5h43v-425h-62v296z" />
    <glyph glyph-name="ordmasculine" unicode="&#xba;" horiz-adv-x="365" 
d="M314 354v-51h-263v51h263zM324 570q0 -82 -37 -126.5t-105 -44.5t-105 44.5t-37 126.5q0 83 37 127.5t105 44.5t105 -44.5t37 -127.5zM266 570q0 56 -22 88t-62 32q-39 0 -61.5 -32t-22.5 -87q0 -56 22.5 -88t61.5 -32t61.5 32t22.5 87z" />
    <glyph glyph-name="guillemotright" unicode="&#xbb;" 
d="M252 317v-89l-154 -122v83l108 83l-108 83v83zM451 317v-89l-154 -122v83l108 83l-108 83v83z" />
    <glyph glyph-name="onequarter" unicode="&#xbc;" horiz-adv-x="834" 
d="M160 580h-99v45l15 2q56 6 73 19.5t30 62.5h43v-425h-62v296zM643 709h58l-452 -729h-58zM720 100h-188v59l204 266h46v-272h67v-53h-67v-100h-62v100zM720 153v170h-2l-127 -170h129z" />
    <glyph glyph-name="onehalf" unicode="&#xbd;" horiz-adv-x="834" 
d="M160 580h-99v45l15 2q56 6 73 19.5t30 62.5h43v-425h-62v296zM619 709h58l-452 -729h-58zM841 58v-58h-304q5 76 29.5 112t97.5 75l58 31q59 32 59 79q0 32 -24 53.5t-61 21.5q-52 0 -74 -39q-10 -17 -13 -60h-62q1 63 24 96q39 56 127 56q64 0 105 -35t41 -91
q0 -80 -96 -129l-63 -32q-32 -16 -47 -33t-26 -47h229z" />
    <glyph glyph-name="threequarters" unicode="&#xbe;" horiz-adv-x="834" 
d="M135 476v51q64 0 87 12.5t23 46.5q0 70 -76 70q-51 0 -72 -35q-9 -18 -9 -54h-62q2 142 143 142q64 0 101.5 -32t37.5 -88q0 -59 -56 -85q70 -23 70 -100q0 -61 -41.5 -97.5t-112.5 -36.5q-146 0 -152 142h62q2 -46 24 -67.5t67 -21.5q43 0 66.5 21t23.5 59q0 73 -91 73
h-24h-9zM653 709h58l-452 -729h-58zM720 100h-188v59l204 266h46v-272h67v-53h-67v-100h-62v100zM720 153v170h-2l-127 -170h129z" />
    <glyph glyph-name="questiondown" unicode="&#xbf;" horiz-adv-x="611" 
d="M275 325h90v-55q0 -69 -65 -127l-40 -36q-75 -67 -75 -132q0 -51 35.5 -82.5t93.5 -31.5q82 0 112 58q17 34 17 98h85q0 -234 -219 -234q-98 0 -156 52t-58 140q0 50 22 89t78 90q42 39 47 45q33 36 33 79v47zM275 420v104h90v-104h-90z" />
    <glyph glyph-name="Agrave" unicode="&#xc0;" horiz-adv-x="667" 
d="M474 219h-281l-77 -219h-99l260 729h120l256 -729h-104zM448 297l-111 332h-2l-119 -332h232zM302 942l96 -148h-60l-149 148h113z" />
    <glyph glyph-name="Aacute" unicode="&#xc1;" horiz-adv-x="667" 
d="M474 219h-281l-77 -219h-99l260 729h120l256 -729h-104zM448 297l-111 332h-2l-119 -332h232zM355 942h113l-149 -148h-60z" />
    <glyph glyph-name="Acircumflex" unicode="&#xc2;" horiz-adv-x="667" 
d="M474 219h-281l-77 -219h-99l260 729h120l256 -729h-104zM448 297l-111 332h-2l-119 -332h232zM283 943h95l96 -150h-63l-81 96l-79 -96h-64z" />
    <glyph glyph-name="Atilde" unicode="&#xc3;" horiz-adv-x="667" 
d="M474 219h-281l-77 -219h-99l260 729h120l256 -729h-104zM448 297l-111 332h-2l-119 -332h232zM428 918h58q-5 -45 -20 -69q-25 -44 -63 -44q-17 0 -50 9l-24 6q-44 11 -59 11q-16 0 -25 -9t-15 -31h-58q5 44 20 69q25 44 63 44q15 0 50 -9l24 -6q43 -11 59 -11t25 9
t15 31z" />
    <glyph glyph-name="Adieresis" unicode="&#xc4;" horiz-adv-x="667" 
d="M474 219h-281l-77 -219h-99l260 729h120l256 -729h-104zM448 297l-111 332h-2l-119 -332h232zM301 910v-103h-104v103h104zM463 910v-103h-104v103h104z" />
    <glyph glyph-name="Aring" unicode="&#xc5;" horiz-adv-x="667" 
d="M474 219h-281l-77 -219h-99l260 729h120l256 -729h-104zM448 297l-111 332h-2l-119 -332h232zM422 856q0 -37 -25.5 -62.5t-62.5 -25.5t-62.5 25.5t-25.5 62.5q0 36 25.5 61.5t62.5 25.5t62.5 -25.5t25.5 -61.5zM387 856q0 22 -15.5 37t-37.5 15t-37.5 -15.5t-15.5 -36.5
q0 -22 15.5 -37.5t37.5 -15.5t37.5 15.5t15.5 37.5z" />
    <glyph glyph-name="AE" unicode="&#xc6;" horiz-adv-x="1000" 
d="M468 214h-269l-85 -214h-103l299 729h622v-82h-371v-233h352v-82h-352v-250h389v-82h-482v214zM468 296v351h-100l-138 -351h238z" />
    <glyph glyph-name="Ccedilla" unicode="&#xc7;" horiz-adv-x="722" 
d="M662 503h-95q-15 75 -53 110q-48 46 -144 46q-106 0 -167.5 -81.5t-61.5 -220.5q0 -137 64 -217.5t173 -80.5q59 0 103.5 24.5t66.5 69.5q22 44 33 113h96q-33 -289 -297 -289q-145 0 -227 85q-105 111 -105 294q0 184 102 295q82 90 230 90q238 0 282 -238zM360 0h38
l-23 -56q13 2 27 2q38 0 59 -17.5t21 -49.5q0 -43 -33 -68t-90 -25q-50 0 -117 30l-8 4l21 40l9 -4q57 -29 89 -29q23 0 38.5 13t15.5 32q0 37 -46 37q-16 0 -31 -7l-12 6z" />
    <glyph glyph-name="Egrave" unicode="&#xc8;" horiz-adv-x="667" 
d="M183 332v-250h430v-82h-523v729h505v-82h-412v-233h397v-82h-397zM302 942l96 -148h-60l-149 148h113z" />
    <glyph glyph-name="Eacute" unicode="&#xc9;" horiz-adv-x="667" 
d="M183 332v-250h430v-82h-523v729h505v-82h-412v-233h397v-82h-397zM355 942h113l-149 -148h-60z" />
    <glyph glyph-name="Ecircumflex" unicode="&#xca;" horiz-adv-x="667" 
d="M183 332v-250h430v-82h-523v729h505v-82h-412v-233h397v-82h-397zM283 943h95l96 -150h-63l-81 96l-79 -96h-64z" />
    <glyph glyph-name="Edieresis" unicode="&#xcb;" horiz-adv-x="667" 
d="M183 332v-250h430v-82h-523v729h505v-82h-412v-233h397v-82h-397zM301 910v-103h-104v103h104zM463 910v-103h-104v103h104z" />
    <glyph glyph-name="Igrave" unicode="&#xcc;" horiz-adv-x="278" 
d="M194 729v-729h-94v729h94zM108 942l96 -148h-60l-149 148h113z" />
    <glyph glyph-name="Iacute" unicode="&#xcd;" horiz-adv-x="278" 
d="M194 729v-729h-94v729h94zM161 942h113l-149 -148h-60z" />
    <glyph glyph-name="Icircumflex" unicode="&#xce;" horiz-adv-x="278" 
d="M194 729v-729h-94v729h94zM89 943h95l96 -150h-63l-81 96l-79 -96h-64z" />
    <glyph glyph-name="Idieresis" unicode="&#xcf;" horiz-adv-x="278" 
d="M194 729v-729h-94v729h94zM107 910v-103h-104v103h104zM269 910v-103h-104v103h104z" />
    <glyph glyph-name="Eth" unicode="&#xd0;" horiz-adv-x="722" 
d="M89 342h-69v61h69v326h282q138 0 217 -97t79 -267t-79 -267.5t-217 -97.5h-282v342zM183 342v-260h172q106 0 164 73q55 71 55 209q0 136 -55 210q-56 73 -164 73h-172v-244h150v-61h-150z" />
    <glyph glyph-name="Ntilde" unicode="&#xd1;" horiz-adv-x="722" 
d="M646 729v-729h-105l-375 591h-2v-591h-88v729h101l379 -596h2v596h88zM456 918h58q-5 -45 -20 -69q-25 -44 -63 -44q-17 0 -50 9l-24 6q-44 11 -59 11q-16 0 -25 -9t-15 -31h-58q5 44 20 69q25 44 63 44q15 0 50 -9l24 -6q43 -11 59 -11t25 9t15 31z" />
    <glyph glyph-name="Ograve" unicode="&#xd2;" horiz-adv-x="778" 
d="M742 359q0 -94 -33 -174t-93 -131q-91 -77 -226 -77q-158 0 -255 105t-97 277t97 277t255 105q135 0 226 -77q60 -51 93 -131t33 -174zM649 359q0 135 -71 217.5t-188 82.5t-188 -82.5t-71 -217.5t71 -217.5t188 -82.5t188 82.5t71 217.5zM358 942l96 -148h-60l-149 148
h113z" />
    <glyph glyph-name="Oacute" unicode="&#xd3;" horiz-adv-x="778" 
d="M742 359q0 -94 -33 -174t-93 -131q-91 -77 -226 -77q-158 0 -255 105t-97 277t97 277t255 105q135 0 226 -77q60 -51 93 -131t33 -174zM649 359q0 135 -71 217.5t-188 82.5t-188 -82.5t-71 -217.5t71 -217.5t188 -82.5t188 82.5t71 217.5zM411 942h113l-149 -148h-60z
" />
    <glyph glyph-name="Ocircumflex" unicode="&#xd4;" horiz-adv-x="778" 
d="M742 359q0 -94 -33 -174t-93 -131q-91 -77 -226 -77q-158 0 -255 105t-97 277t97 277t255 105q135 0 226 -77q60 -51 93 -131t33 -174zM649 359q0 135 -71 217.5t-188 82.5t-188 -82.5t-71 -217.5t71 -217.5t188 -82.5t188 82.5t71 217.5zM339 943h95l96 -150h-63l-81 96
l-79 -96h-64z" />
    <glyph glyph-name="Otilde" unicode="&#xd5;" horiz-adv-x="778" 
d="M742 359q0 -94 -33 -174t-93 -131q-91 -77 -226 -77q-158 0 -255 105t-97 277t97 277t255 105q135 0 226 -77q60 -51 93 -131t33 -174zM649 359q0 135 -71 217.5t-188 82.5t-188 -82.5t-71 -217.5t71 -217.5t188 -82.5t188 82.5t71 217.5zM484 918h58q-5 -45 -20 -69
q-25 -44 -63 -44q-17 0 -50 9l-24 6q-44 11 -59 11q-16 0 -25 -9t-15 -31h-58q5 44 20 69q25 44 63 44q15 0 50 -9l24 -6q43 -11 59 -11t25 9t15 31z" />
    <glyph glyph-name="Odieresis" unicode="&#xd6;" horiz-adv-x="778" 
d="M742 359q0 -94 -33 -174t-93 -131q-91 -77 -226 -77q-158 0 -255 105t-97 277t97 277t255 105q135 0 226 -77q60 -51 93 -131t33 -174zM649 359q0 135 -71 217.5t-188 82.5t-188 -82.5t-71 -217.5t71 -217.5t188 -82.5t188 82.5t71 217.5zM357 910v-103h-104v103h104z
M519 910v-103h-104v103h104z" />
    <glyph glyph-name="multiply" unicode="&#xd7;" horiz-adv-x="584" 
d="M438 540l50 -50l-147 -146l148 -148l-50 -49l-148 147l-146 -147l-50 50l147 146l-146 146l50 50l146 -146z" />
    <glyph glyph-name="Oslash" unicode="&#xd8;" horiz-adv-x="778" 
d="M30 19l81 89q-76 106 -76 252q0 171 97 276t255 105q137 0 230 -81l87 95l40 -36l-90 -97q85 -105 85 -264q0 -171 -97 -276t-255 -105q-144 0 -241 90l-77 -84zM174 176l384 419q-73 64 -171 64q-116 0 -187.5 -82.5t-71.5 -216.5q0 -107 46 -184zM593 554l-387 -421
q74 -74 181 -74q116 0 187.5 82.5t71.5 216.5q0 113 -53 196z" />
    <glyph glyph-name="Ugrave" unicode="&#xd9;" horiz-adv-x="722" 
d="M552 729h93v-512q0 -110 -76.5 -175t-204.5 -65q-130 0 -204.5 64.5t-74.5 175.5v512h93v-512q0 -80 53 -120q53 -38 133 -38q88 0 138 42t50 116v512zM330 942l96 -148h-60l-149 148h113z" />
    <glyph glyph-name="Uacute" unicode="&#xda;" horiz-adv-x="722" 
d="M552 729h93v-512q0 -110 -76.5 -175t-204.5 -65q-130 0 -204.5 64.5t-74.5 175.5v512h93v-512q0 -80 53 -120q53 -38 133 -38q88 0 138 42t50 116v512zM383 942h113l-149 -148h-60z" />
    <glyph glyph-name="Ucircumflex" unicode="&#xdb;" horiz-adv-x="722" 
d="M552 729h93v-512q0 -110 -76.5 -175t-204.5 -65q-130 0 -204.5 64.5t-74.5 175.5v512h93v-512q0 -80 53 -120q53 -38 133 -38q88 0 138 42t50 116v512zM311 943h95l96 -150h-63l-81 96l-79 -96h-64z" />
    <glyph glyph-name="Udieresis" unicode="&#xdc;" horiz-adv-x="722" 
d="M552 729h93v-512q0 -110 -76.5 -175t-204.5 -65q-130 0 -204.5 64.5t-74.5 175.5v512h93v-512q0 -80 53 -120q53 -38 133 -38q88 0 138 42t50 116v512zM329 910v-103h-104v103h104zM491 910v-103h-104v103h104z" />
    <glyph glyph-name="Yacute" unicode="&#xdd;" horiz-adv-x="667" 
d="M337 374l209 355h115l-277 -443v-286h-94v286l-277 443h115zM355 942h113l-149 -148h-60z" />
    <glyph glyph-name="Thorn" unicode="&#xde;" horiz-adv-x="667" 
d="M185 189v-189h-93v729h93v-120h208q104 0 164 -56.5t60 -155.5q0 -91 -57 -149.5t-146 -58.5h-229zM185 271h194q65 0 101.5 33.5t36.5 94.5q0 60 -36.5 94t-101.5 34h-194v-256z" />
    <glyph glyph-name="germandbls" unicode="&#xdf;" horiz-adv-x="611" 
d="M302 349v82h7q61 0 100 31t39 80q0 48 -33 78.5t-85 30.5q-55 0 -88 -30.5t-33 -82.5v-538h-83v538q0 90 52 136q64 55 159 55q89 0 143.5 -50.5t54.5 -133.5q0 -103 -109 -144q62 -22 93 -54q47 -50 47 -128q0 -110 -60.5 -174.5t-163.5 -64.5q-21 0 -44 4v78h41
q61 0 100.5 43t39.5 108q0 72 -44 107q-37 29 -118 29h-15z" />
    <glyph glyph-name="agrave" unicode="&#xe0;" 
d="M535 49v-63q-36 -9 -56 -9q-41 0 -62 18.5t-25 58.5q-84 -77 -178 -77q-79 0 -125.5 42t-46.5 114q0 78 52 116q48 35 148 47l60 8q48 6 67 19t19 39v22q0 78 -117 78q-112 0 -122 -93h-84q4 73 36 109q55 61 173 61q97 0 147.5 -36.5t50.5 -106.5v-308q0 -41 45 -41
q9 0 18 2zM388 165v94q-31 -14 -88 -23l-46 -6q-67 -11 -96 -33t-29 -63q0 -40 27.5 -62t76.5 -22q71 0 123 47q32 29 32 68zM247 740l96 -148h-60l-149 148h113z" />
    <glyph glyph-name="aacute" unicode="&#xe1;" 
d="M535 49v-63q-36 -9 -56 -9q-41 0 -62 18.5t-25 58.5q-84 -77 -178 -77q-79 0 -125.5 42t-46.5 114q0 78 52 116q48 35 148 47l60 8q48 6 67 19t19 39v22q0 78 -117 78q-112 0 -122 -93h-84q4 73 36 109q55 61 173 61q97 0 147.5 -36.5t50.5 -106.5v-308q0 -41 45 -41
q9 0 18 2zM388 165v94q-31 -14 -88 -23l-46 -6q-67 -11 -96 -33t-29 -63q0 -40 27.5 -62t76.5 -22q71 0 123 47q32 29 32 68zM300 740h113l-149 -148h-60z" />
    <glyph glyph-name="acircumflex" unicode="&#xe2;" 
d="M535 49v-63q-36 -9 -56 -9q-41 0 -62 18.5t-25 58.5q-84 -77 -178 -77q-79 0 -125.5 42t-46.5 114q0 78 52 116q48 35 148 47l60 8q48 6 67 19t19 39v22q0 78 -117 78q-112 0 -122 -93h-84q4 73 36 109q55 61 173 61q97 0 147.5 -36.5t50.5 -106.5v-308q0 -41 45 -41
q9 0 18 2zM388 165v94q-31 -14 -88 -23l-46 -6q-67 -11 -96 -33t-29 -63q0 -40 27.5 -62t76.5 -22q71 0 123 47q32 29 32 68zM228 741h95l96 -150h-63l-81 96l-79 -96h-64z" />
    <glyph glyph-name="atilde" unicode="&#xe3;" 
d="M535 49v-63q-36 -9 -56 -9q-41 0 -62 18.5t-25 58.5q-84 -77 -178 -77q-79 0 -125.5 42t-46.5 114q0 78 52 116q48 35 148 47l60 8q48 6 67 19t19 39v22q0 78 -117 78q-112 0 -122 -93h-84q4 73 36 109q55 61 173 61q97 0 147.5 -36.5t50.5 -106.5v-308q0 -41 45 -41
q9 0 18 2zM388 165v94q-31 -14 -88 -23l-46 -6q-67 -11 -96 -33t-29 -63q0 -40 27.5 -62t76.5 -22q71 0 123 47q32 29 32 68zM373 716h58q-5 -45 -20 -69q-25 -44 -63 -44q-17 0 -50 9l-24 6q-44 11 -59 11q-16 0 -25 -9t-15 -31h-58q5 44 20 69q25 44 63 44q15 0 50 -9
l24 -6q43 -11 59 -11t25 9t15 31z" />
    <glyph glyph-name="adieresis" unicode="&#xe4;" 
d="M535 49v-63q-36 -9 -56 -9q-41 0 -62 18.5t-25 58.5q-84 -77 -178 -77q-79 0 -125.5 42t-46.5 114q0 78 52 116q48 35 148 47l60 8q48 6 67 19t19 39v22q0 78 -117 78q-112 0 -122 -93h-84q4 73 36 109q55 61 173 61q97 0 147.5 -36.5t50.5 -106.5v-308q0 -41 45 -41
q9 0 18 2zM388 165v94q-31 -14 -88 -23l-46 -6q-67 -11 -96 -33t-29 -63q0 -40 27.5 -62t76.5 -22q71 0 123 47q32 29 32 68zM246 708v-103h-104v103h104zM408 708v-103h-104v103h104z" />
    <glyph glyph-name="aring" unicode="&#xe5;" 
d="M535 49v-63q-36 -9 -56 -9q-41 0 -62 18.5t-25 58.5q-84 -77 -178 -77q-79 0 -125.5 42t-46.5 114q0 78 52 116q48 35 148 47l60 8q48 6 67 19t19 39v22q0 78 -117 78q-112 0 -122 -93h-84q4 73 36 109q55 61 173 61q97 0 147.5 -36.5t50.5 -106.5v-308q0 -41 45 -41
q9 0 18 2zM388 165v94q-31 -14 -88 -23l-46 -6q-67 -11 -96 -33t-29 -63q0 -40 27.5 -62t76.5 -22q71 0 123 47q32 29 32 68zM367 654q0 -37 -25.5 -62.5t-62.5 -25.5t-62.5 25.5t-25.5 62.5q0 36 25.5 61.5t62.5 25.5t62.5 -25.5t25.5 -61.5zM332 654q0 22 -15.5 37
t-37.5 15t-37.5 -15.5t-15.5 -36.5q0 -22 15.5 -37.5t37.5 -15.5t37.5 15.5t15.5 37.5z" />
    <glyph glyph-name="ae" unicode="&#xe6;" horiz-adv-x="889" 
d="M835 159l-3 -11q-13 -46 -28 -72.5t-43 -48.5q-61 -50 -147 -50q-61 0 -110.5 24t-72.5 65l-13 21q-36 -42 -86 -73q-59 -37 -129 -37q-77 0 -123 42t-46 112q0 102 93 141q34 14 92 23q1 0 75 8q51 4 69 16.5t18 42.5v22q0 38 -30.5 58t-87.5 20q-113 0 -122 -93h-84
l1 11q5 45 17 71t38 45q58 43 149 43q132 0 178 -82q17 35 67 58.5t108 23.5q109 0 174 -79q56 -70 56 -214v-12h-386q2 -72 28 -112q46 -68 125 -68q100 0 139 105h84zM381 157v101q-31 -13 -88 -22l-46 -7q-67 -11 -94 -30q-32 -24 -32 -67q0 -37 27 -59.5t71 -22.5
q59 0 104 32q58 41 58 75zM755 302v11q-1 62 -42.5 105.5t-101.5 43.5q-63 0 -102 -41.5t-48 -118.5h294z" />
    <glyph glyph-name="ccedilla" unicode="&#xe7;" horiz-adv-x="500" 
d="M471 348h-84q-7 55 -39 84.5t-85 29.5q-68 0 -106.5 -55.5t-38.5 -153.5q0 -93 39 -146t108 -53q107 0 128 126h84q-7 -97 -63.5 -150t-150.5 -53q-107 0 -169.5 74.5t-62.5 201.5q0 131 63.5 208.5t170.5 77.5q114 0 171 -78q29 -43 35 -113zM249 0h38l-23 -56
q13 2 27 2q38 0 59 -17.5t21 -49.5q0 -43 -33 -68t-90 -25q-50 0 -117 30l-8 4l21 40l9 -4q57 -29 89 -29q23 0 38.5 13t15.5 32q0 37 -46 37q-16 0 -31 -7l-12 6z" />
    <glyph glyph-name="egrave" unicode="&#xe8;" 
d="M513 234h-386q1 -71 28 -112q43 -68 126 -68q102 0 137 105h84q-16 -86 -75 -134t-149 -48q-111 0 -174.5 74t-63.5 203q0 130 65 207.5t175 77.5q53 0 100 -21t77 -58t43 -86.5t13 -128.5v-11zM129 302h297q1 65 -40 112.5t-107 47.5q-64 0 -104.5 -43t-45.5 -117z
M247 740l96 -148h-60l-149 148h113z" />
    <glyph glyph-name="eacute" unicode="&#xe9;" 
d="M513 234h-386q1 -71 28 -112q43 -68 126 -68q102 0 137 105h84q-16 -86 -75 -134t-149 -48q-111 0 -174.5 74t-63.5 203q0 130 65 207.5t175 77.5q53 0 100 -21t77 -58t43 -86.5t13 -128.5v-11zM129 302h297q1 65 -40 112.5t-107 47.5q-64 0 -104.5 -43t-45.5 -117z
M300 740h113l-149 -148h-60z" />
    <glyph glyph-name="ecircumflex" unicode="&#xea;" 
d="M513 234h-386q1 -71 28 -112q43 -68 126 -68q102 0 137 105h84q-16 -86 -75 -134t-149 -48q-111 0 -174.5 74t-63.5 203q0 130 65 207.5t175 77.5q53 0 100 -21t77 -58t43 -86.5t13 -128.5v-11zM129 302h297q1 65 -40 112.5t-107 47.5q-64 0 -104.5 -43t-45.5 -117z
M228 741h95l96 -150h-63l-81 96l-79 -96h-64z" />
    <glyph glyph-name="edieresis" unicode="&#xeb;" 
d="M513 234h-386q1 -71 28 -112q43 -68 126 -68q102 0 137 105h84q-16 -86 -75 -134t-149 -48q-111 0 -174.5 74t-63.5 203q0 130 65 207.5t175 77.5q53 0 100 -21t77 -58t43 -86.5t13 -128.5v-11zM129 302h297q1 65 -40 112.5t-107 47.5q-64 0 -104.5 -43t-45.5 -117z
M246 708v-103h-104v103h104zM408 708v-103h-104v103h104z" />
    <glyph glyph-name="igrave" unicode="&#xec;" horiz-adv-x="278" 
d="M178 524v-524h-84v524h84zM108 740l96 -148h-60l-149 148h113z" />
    <glyph glyph-name="iacute" unicode="&#xed;" horiz-adv-x="278" 
d="M178 524v-524h-84v524h84zM161 740h113l-149 -148h-60z" />
    <glyph glyph-name="icircumflex" unicode="&#xee;" horiz-adv-x="278" 
d="M178 524v-524h-84v524h84zM89 741h95l96 -150h-63l-81 96l-79 -96h-64z" />
    <glyph glyph-name="idieresis" unicode="&#xef;" horiz-adv-x="278" 
d="M178 524v-524h-84v524h84zM107 708v-103h-104v103h104zM269 708v-103h-104v103h104z" />
    <glyph glyph-name="eth" unicode="&#xf0;" 
d="M217 605l-126 -49l-19 47l97 38q-55 35 -82 49l36 46q51 -25 115 -68l137 53l19 -48l-107 -41q133 -105 178 -179.5t45 -189.5q0 -139 -61 -212.5t-176 -73.5q-113 0 -175 73t-62 208q0 132 58 204q29 34 73.5 55.5t86.5 21.5q12 0 30 -3l2 2l-14 13q-35 36 -55 54z
M423 258q0 95 -40 149.5t-110 54.5t-110 -54.5t-40 -149.5t40 -149.5t110 -54.5t110 54.5t40 149.5z" />
    <glyph glyph-name="ntilde" unicode="&#xf1;" 
d="M70 524h77v-88h2q33 55 73.5 79t98.5 24q76 0 121 -39t45 -104v-396h-84v363q0 47 -29 75t-78 28q-64 0 -103 -48.5t-39 -128.5v-289h-84v524zM373 716h58q-5 -45 -20 -69q-25 -44 -63 -44q-17 0 -50 9l-24 6q-44 11 -59 11q-16 0 -25 -9t-15 -31h-58q5 44 20 69
q25 44 63 44q15 0 50 -9l24 -6q43 -11 59 -11t25 9t15 31z" />
    <glyph glyph-name="ograve" unicode="&#xf2;" 
d="M510 258q0 -133 -62.5 -207t-174.5 -74t-174.5 74t-62.5 207t62.5 207t174.5 74t174.5 -74t62.5 -207zM423 258q0 95 -40 149.5t-110 54.5t-110 -54.5t-40 -149.5t40 -149.5t110 -54.5t110 54.5t40 149.5zM247 740l96 -148h-60l-149 148h113z" />
    <glyph glyph-name="oacute" unicode="&#xf3;" 
d="M510 258q0 -133 -62.5 -207t-174.5 -74t-174.5 74t-62.5 207t62.5 207t174.5 74t174.5 -74t62.5 -207zM423 258q0 95 -40 149.5t-110 54.5t-110 -54.5t-40 -149.5t40 -149.5t110 -54.5t110 54.5t40 149.5zM300 740h113l-149 -148h-60z" />
    <glyph glyph-name="ocircumflex" unicode="&#xf4;" 
d="M510 258q0 -133 -62.5 -207t-174.5 -74t-174.5 74t-62.5 207t62.5 207t174.5 74t174.5 -74t62.5 -207zM423 258q0 95 -40 149.5t-110 54.5t-110 -54.5t-40 -149.5t40 -149.5t110 -54.5t110 54.5t40 149.5zM228 741h95l96 -150h-63l-81 96l-79 -96h-64z" />
    <glyph glyph-name="otilde" unicode="&#xf5;" 
d="M510 258q0 -133 -62.5 -207t-174.5 -74t-174.5 74t-62.5 207t62.5 207t174.5 74t174.5 -74t62.5 -207zM423 258q0 95 -40 149.5t-110 54.5t-110 -54.5t-40 -149.5t40 -149.5t110 -54.5t110 54.5t40 149.5zM373 716h58q-5 -45 -20 -69q-25 -44 -63 -44q-17 0 -50 9l-24 6
q-44 11 -59 11q-16 0 -25 -9t-15 -31h-58q5 44 20 69q25 44 63 44q15 0 50 -9l24 -6q43 -11 59 -11t25 9t15 31z" />
    <glyph glyph-name="odieresis" unicode="&#xf6;" 
d="M510 258q0 -133 -62.5 -207t-174.5 -74t-174.5 74t-62.5 207t62.5 207t174.5 74t174.5 -74t62.5 -207zM423 258q0 95 -40 149.5t-110 54.5t-110 -54.5t-40 -149.5t40 -149.5t110 -54.5t110 54.5t40 149.5zM246 708v-103h-104v103h104zM408 708v-103h-104v103h104z" />
    <glyph glyph-name="divide" unicode="&#xf7;" horiz-adv-x="584" 
d="M534 374v-70h-484v70h484zM344 207v-104h-104v104h104zM344 575v-104h-104v104h104z" />
    <glyph glyph-name="oslash" unicode="&#xf8;" horiz-adv-x="611" 
d="M529 511l-63 -71q44 -73 44 -182q0 -132 -62.5 -206.5t-173.5 -74.5q-102 0 -163 62l-61 -69l-32 28l66 74q-48 73 -48 186q0 133 62.5 207t174.5 74q100 0 166 -65l58 65zM405 371l-238 -269q44 -48 106 -48q70 0 110 54.5t40 149.5q0 65 -18 113zM144 141l239 269
q-41 52 -110 52q-70 0 -110 -54.5t-40 -149.5q0 -68 21 -117z" />
    <glyph glyph-name="ugrave" unicode="&#xf9;" 
d="M482 0h-77v73h-2q-52 -96 -171 -96q-77 0 -122 38.5t-45 104.5v404h84v-371q0 -47 29 -75t78 -28q65 0 103.5 48t38.5 129v297h84v-524zM247 740l96 -148h-60l-149 148h113z" />
    <glyph glyph-name="uacute" unicode="&#xfa;" 
d="M482 0h-77v73h-2q-52 -96 -171 -96q-77 0 -122 38.5t-45 104.5v404h84v-371q0 -47 29 -75t78 -28q65 0 103.5 48t38.5 129v297h84v-524zM300 740h113l-149 -148h-60z" />
    <glyph glyph-name="ucircumflex" unicode="&#xfb;" 
d="M482 0h-77v73h-2q-52 -96 -171 -96q-77 0 -122 38.5t-45 104.5v404h84v-371q0 -47 29 -75t78 -28q65 0 103.5 48t38.5 129v297h84v-524zM228 741h95l96 -150h-63l-81 96l-79 -96h-64z" />
    <glyph glyph-name="udieresis" unicode="&#xfc;" 
d="M482 0h-77v73h-2q-52 -96 -171 -96q-77 0 -122 38.5t-45 104.5v404h84v-371q0 -47 29 -75t78 -28q65 0 103.5 48t38.5 129v297h84v-524zM246 708v-103h-104v103h104zM408 708v-103h-104v103h104z" />
    <glyph glyph-name="yacute" unicode="&#xfd;" horiz-adv-x="500" 
d="M388 524h90l-233 -634q-22 -57 -57 -83q-34 -25 -78 -25q-31 0 -56 13v75q27 -6 45 -6q48 0 67 51l31 83l-177 526h90l132 -408h2zM272 740h113l-149 -148h-60z" />
    <glyph glyph-name="thorn" unicode="&#xfe;" 
d="M55 -218v932h83v-255h2q53 80 159 80q102 0 163 -78t61 -208q0 -125 -61 -200.5t-163 -75.5q-98 0 -159 78h-2v-273h-83zM436 258q0 92 -41.5 147.5t-110.5 55.5q-67 0 -106.5 -55.5t-39.5 -147.5q0 -93 39.5 -148t106.5 -55q69 0 110.5 55.5t41.5 147.5z" />
    <glyph glyph-name="ydieresis" unicode="&#xff;" horiz-adv-x="500" 
d="M388 524h90l-233 -634q-22 -57 -57 -83q-34 -25 -78 -25q-31 0 -56 13v75q27 -6 45 -6q48 0 67 51l31 83l-177 526h90l132 -408h2zM218 708v-103h-104v103h104zM380 708v-103h-104v103h104z" />
    <glyph glyph-name="dotlessi" unicode="&#x131;" horiz-adv-x="278" 
d="M178 524v-524h-84v524h84z" />
    <glyph glyph-name="ij" unicode="&#x133;" horiz-adv-x="444" 
d="M290 524h84v-633q0 -109 -142 -109q-14 0 -29 3v71q9 -1 19 -1q40 0 54 14.5t14 54.5v600zM374 729v-105h-84v105h84zM150 524v-524h-84v524h84zM150 729v-105h-84v105h84z" />
    <glyph glyph-name="Lslash" unicode="&#x141;" 
d="M173 343l151 104v-73l-151 -105v-187h379v-82h-472v203l-80 -57v75l80 56v452h93v-386z" />
    <glyph glyph-name="lslash" unicode="&#x142;" horiz-adv-x="222" 
d="M146 427l66 58v-58l-66 -57v-370h-83v311l-63 -56v58l63 55v361h83v-302z" />
    <glyph glyph-name="OE" unicode="&#x152;" horiz-adv-x="1000" 
d="M619 327v-245h340v-82h-434v74h-2q-64 -94 -182 -94q-133 0 -211 92q-87 103 -87 284q0 207 102 307q81 78 197 78q121 0 181 -88h2v76h429v-82h-335v-238h327v-82h-327zM525 182v357q-59 120 -182 120q-102 0 -156 -78q-51 -75 -51 -221q0 -141 51 -220q53 -78 155 -78
q124 0 183 120z" />
    <glyph glyph-name="oe" unicode="&#x153;" horiz-adv-x="944" 
d="M804 159h84q-16 -86 -75 -134t-149 -48q-132 0 -193 103q-63 -103 -194 -103q-114 0 -175.5 73.5t-61.5 208.5q0 134 61.5 207t175.5 73q133 0 196 -106q31 50 81.5 78t111.5 28q53 0 100 -21t77 -58t43 -86.5t13 -128.5v-11h-386q1 -71 28 -112q43 -68 126 -68
q102 0 137 105zM427 259q0 95 -40 149t-110 54t-110 -54.5t-40 -149.5t40 -149.5t110 -54.5t110 54.5t40 150.5zM515 302h294q-1 71 -40.5 115.5t-103.5 44.5t-104.5 -43.5t-45.5 -116.5z" />
    <glyph glyph-name="Scaron" unicode="&#x160;" horiz-adv-x="667" 
d="M596 515h-88q-1 72 -48 110t-134 38q-74 0 -118.5 -34t-44.5 -89q0 -47 33 -71q28 -21 87 -37l183 -49q74 -20 114.5 -68t40.5 -115q0 -47 -21.5 -92.5t-58.5 -74.5q-71 -56 -205 -56q-168 0 -245 104q-42 54 -43 151h88v-6q0 -60 38 -106q51 -61 167 -61q90 0 135 31
q52 36 52 101q0 83 -134 118l-181 48q-143 37 -143 170q0 99 69.5 156.5t189.5 57.5q117 0 186 -52q38 -29 59.5 -72t21.5 -90v-12zM377 794h-95l-96 148h63l81 -95l79 95h64z" />
    <glyph glyph-name="scaron" unicode="&#x161;" horiz-adv-x="500" 
d="M438 378h-88q-1 41 -25 60q-30 24 -79 24q-52 0 -82 -21t-30 -58q0 -28 23 -45.5t74 -29.5l80 -19q75 -18 106 -46q42 -39 42 -100q0 -76 -58.5 -121t-157.5 -45q-203 0 -209 179h88q6 -47 24 -67q33 -35 104 -35q55 0 88.5 22.5t33.5 59.5q0 29 -19 46t-62 27l-78 19
q-92 23 -125 52q-41 35 -41 99q0 73 54.5 116.5t145.5 43.5t140.5 -42t50.5 -119zM294 592h-95l-96 148h63l81 -95l79 95h64z" />
    <glyph glyph-name="Ydieresis" unicode="&#x178;" horiz-adv-x="667" 
d="M337 374l209 355h115l-277 -443v-286h-94v286l-277 443h115zM301 910v-103h-104v103h104zM463 910v-103h-104v103h104z" />
    <glyph glyph-name="Zcaron" unicode="&#x17d;" horiz-adv-x="611" 
d="M581 729v-84l-436 -563h438v-82h-555v82l438 565h-410v82h525zM349 794h-95l-96 148h63l81 -95l79 95h64z" />
    <glyph glyph-name="zcaron" unicode="&#x17e;" horiz-adv-x="500" 
d="M443 524v-74l-311 -377h325v-73h-426v75l313 376h-292v73h391zM294 592h-95l-96 148h63l81 -95l79 95h64z" />
    <glyph glyph-name="florin" unicode="&#x192;" 
d="M467 462v-70h-126l-75 -397q-19 -104 -65 -150q-54 -57 -135 -57q-35 0 -55 10l17 84q25 -16 51 -16q74 0 96 113l78 413h-113v70h125l22 104q18 82 61 124q51 48 116 48q34 0 78 -19l-29 -79q-33 18 -53 18q-71 0 -94 -126l-12 -70h113z" />
    <glyph glyph-name="circumflex" unicode="&#x2c6;" horiz-adv-x="333" 
d="M116 741h95l96 -150h-63l-81 96l-79 -96h-64z" />
    <glyph glyph-name="caron" unicode="&#x2c7;" horiz-adv-x="333" 
d="M210 592h-95l-96 148h63l81 -95l79 95h64z" />
    <glyph glyph-name="breve" unicode="&#x2d8;" horiz-adv-x="333" 
d="M15 729h59q7 -62 91 -62q85 0 92 62h59q-1 -56 -28 -87q-42 -48 -122 -48q-89 0 -130 57q-20 28 -21 78z" />
    <glyph glyph-name="dotaccent" unicode="&#x2d9;" horiz-adv-x="333" 
d="M219 709v-104h-104v104h104z" />
    <glyph glyph-name="ring" unicode="&#x2da;" horiz-adv-x="333" 
d="M255 654q0 -37 -25.5 -62.5t-62.5 -25.5t-62.5 25.5t-25.5 62.5q0 36 25.5 61.5t62.5 25.5t62.5 -25.5t25.5 -61.5zM220 654q0 22 -15.5 37t-37.5 15t-37.5 -15.5t-15.5 -36.5q0 -22 15.5 -37.5t37.5 -15.5t37.5 15.5t15.5 37.5z" />
    <glyph glyph-name="ogonek" unicode="&#x2db;" horiz-adv-x="333" 
d="M154 15h70q-55 -31 -74.5 -52.5t-19.5 -53.5q0 -54 71 -54q37 0 64 10v-45q-41 -9 -68 -9q-66 0 -103 24.5t-37 67.5q0 37 25.5 66t71.5 46z" />
    <glyph glyph-name="tilde" unicode="&#x2dc;" horiz-adv-x="333" 
d="M261 716h58q-5 -45 -20 -69q-25 -44 -63 -44q-17 0 -50 9l-24 6q-44 11 -59 11q-16 0 -25 -9t-15 -31h-58q5 44 20 69q25 44 63 44q15 0 50 -9l24 -6q43 -11 59 -11t25 9t15 31z" />
    <glyph glyph-name="hungarumlaut" unicode="&#x2dd;" horiz-adv-x="333" 
d="M61 740h113l-149 -150h-60zM235 740h113l-149 -150h-60z" />
    <glyph glyph-name="Gamma" unicode="&#x393;" horiz-adv-x="560" 
d="M82 729h469v-82h-376v-647h-93v729z" />
    <glyph glyph-name="Theta" unicode="&#x398;" horiz-adv-x="781" 
d="M541 396v-73h-299v73h299zM743 359q0 -161 -92.5 -271.5t-259.5 -110.5q-114 0 -195.5 55t-119 140t-37.5 187q0 60 13.5 115.5t42 104t69.5 84.5t99.5 57t127.5 21q113 0 194.5 -54.5t119.5 -139t38 -188.5zM650 359q0 135 -70.5 217.5t-188.5 82.5q-117 0 -188 -82
t-71 -218q0 -135 70.5 -217.5t188.5 -82.5t188.5 83t70.5 217z" />
    <glyph glyph-name="Sigma" unicode="&#x3a3;" horiz-adv-x="613" 
d="M42 0v81l280 289l-279 277v82h514v-82h-391l274 -277l-280 -288h414v-82h-532z" />
    <glyph glyph-name="Phi" unicode="&#x3a6;" horiz-adv-x="724" 
d="M316 -10v91q-71 4 -125.5 30.5t-86.5 67.5t-48 88t-16 98q0 69 27 129t91.5 104t157.5 50v91h93v-91q72 -4 126.5 -29t86 -65t47 -87.5t15.5 -101.5q0 -120 -69.5 -198t-205.5 -86v-91h-93zM316 162v405q-86 -7 -134.5 -60t-48.5 -143q0 -97 54 -146.5t129 -55.5z
M409 567v-405q76 7 129 56.5t53 145.5q0 90 -48.5 143t-133.5 60z" />
    <glyph glyph-name="Omega" unicode="&#x3a9;" horiz-adv-x="747" 
d="M27 0v82h193v2q-25 14 -42.5 25.5t-45.5 38.5t-45.5 57.5t-31 80.5t-13.5 109q0 81 24 144.5t59.5 100t82.5 60.5t87.5 32.5t78.5 8.5q43 0 86.5 -10t88 -35.5t79 -63.5t56 -99t21.5 -137q0 -60 -13.5 -109.5t-30.5 -80t-45 -57.5t-45.5 -39t-43.5 -26v-2h193v-82h-288
v82q27 16 43.5 27.5t45.5 39.5t46.5 58t31 79.5t13.5 107.5q0 70 -20.5 122.5t-55 83t-75.5 45t-87 14.5q-107 0 -173 -69.5t-66 -195.5q0 -58 13.5 -107.5t31 -79.5t46.5 -58t45.5 -39.5t43.5 -27.5v-82h-288z" />
    <glyph glyph-name="alpha" unicode="&#x3b1;" horiz-adv-x="583" 
d="M513 524v-524h-84v66h-2q-63 -89 -164 -89q-94 0 -157 69t-63 208q0 125 46 194q60 91 173 91q100 0 165 -90h2v75h84zM428 258q0 89 -39.5 146.5t-109.5 57.5q-58 0 -103.5 -48.5t-45.5 -157.5q0 -48 12 -90.5t46.5 -76.5t88.5 -34q75 0 113 58.5t38 144.5z" />
    <glyph glyph-name="delta" unicode="&#x3b4;" horiz-adv-x="559" 
d="M259 532l-161 126v71h370v-74h-251v-2l148 -113q75 -58 92 -80q60 -75 60 -202q0 -143 -67 -212t-170 -69q-109 0 -173 72.5t-64 208.5q0 130 59 200t157 74zM430 258q0 61 -15.5 104t-40 63t-47.5 28.5t-47 8.5q-25 0 -48.5 -9t-47.5 -29.5t-39 -63.5t-15 -102
t14.5 -101t38 -63.5t47.5 -30.5t50 -9q24 0 47 8.5t47.5 28.5t40 63t15.5 104z" />
    <glyph glyph-name="epsilon" unicode="&#x3b5;" horiz-adv-x="498" 
d="M312 304v-70h-45t-45.5 -4.5t-45.5 -13t-30 -26t-13 -42.5q0 -40 32.5 -67.5t88.5 -27.5q37 0 64 11.5t42 33.5t21 35t12 35h83q-12 -56 -38 -95.5t-60 -59t-65.5 -28t-65.5 -8.5q-95 0 -148 50t-53 117q0 10 2 21.5t9.5 34.5t29 43t54.5 31q-81 44 -81 122
q0 66 56.5 104.5t134.5 38.5q105 0 164 -69q34 -38 42 -101h-81q-4 16 -9 27t-17.5 29t-36.5 28t-58 10q-44 0 -76 -21.5t-32 -56.5q0 -86 165 -81z" />
    <glyph glyph-name="pi" unicode="&#x3c0;" horiz-adv-x="597" 
d="M577 524v-74h-75v-450h-84v450h-239v-450h-84v450h-75v74h557z" />
    <glyph glyph-name="sigma" unicode="&#x3c3;" horiz-adv-x="582" 
d="M565 524v-74h-115q18 -21 29 -36t24.5 -59.5t13.5 -100.5q0 -132 -64.5 -204.5t-172.5 -72.5q-109 0 -173 72.5t-64 208.5q0 66 16.5 118t41 81.5t57.5 49t62 26t58 6.5q43 0 105 -15h182zM430 258q0 109 -44.5 156.5t-105.5 47.5q-26 0 -50 -9.5t-47.5 -30.5t-38 -63.5
t-14.5 -100.5q0 -59 14.5 -101t38 -63.5t47.5 -30.5t50 -9q24 0 47 8.5t47.5 28.5t40 63t15.5 104z" />
    <glyph glyph-name="tau" unicode="&#x3c4;" horiz-adv-x="465" 
d="M190 0v450h-173v74h431v-74h-174v-450h-84z" />
    <glyph glyph-name="phi" unicode="&#x3c6;" horiz-adv-x="669" 
d="M293 -218v196q-82 7 -131 38q-63 40 -91 107.5t-28 135.5q0 35 7.5 73.5t36 89.5t75.5 79q56 33 131 38v113h83v-113q78 -5 131 -38q37 -23 63 -57.5t36.5 -71t14.5 -62.5t4 -51t-4 -51.5t-15 -63t-36.5 -71t-62.5 -57.5q-49 -31 -131 -38v-196h-83zM293 53v411
q-51 -5 -86 -28t-50 -57.5t-20.5 -63t-5.5 -60.5q0 -18 1.5 -35t10.5 -47.5t25 -53.5t48.5 -42.5t76.5 -23.5zM375 464v-411q162 16 162 209q0 17 -1.5 34t-10.5 48t-24.5 53.5t-48 42.5t-77.5 24z" />
    <glyph glyph-name="endash" unicode="&#x2013;" 
d="M606 240h-656v72h656v-72z" />
    <glyph glyph-name="emdash" unicode="&#x2014;" horiz-adv-x="1000" 
d="M1050 240h-1100v72h1100v-72z" />
    <glyph glyph-name="underscoredbl" unicode="&#x2017;" 
d="M-50 -175h656v-50h-656v50zM-50 -75h656v-50h-656v50z" />
    <glyph glyph-name="quoteleft" unicode="&#x2018;" horiz-adv-x="222" 
d="M158 477h-93v101q0 59 24 93t69 38v-38q-26 -5 -37 -24t-11 -59v-2v-5h48v-104z" />
    <glyph glyph-name="quoteright" unicode="&#x2019;" horiz-adv-x="222" 
d="M64 709h94v-101q0 -60 -24 -94t-70 -37v38q27 4 38 22.5t11 59.5v3v5h-49v104z" />
    <glyph glyph-name="quotesinglbase" unicode="&#x201a;" horiz-adv-x="222" 
d="M64 104h94v-101q0 -123 -94 -131v38q27 5 38 23.5t11 58.5v3v5h-49v104z" />
    <glyph glyph-name="quotedblleft" unicode="&#x201c;" horiz-adv-x="333" 
d="M141 477h-93v101q0 59 24 93t69 38v-38q-26 -5 -37 -24t-11 -59v-2v-5h48v-104zM299 477h-93v101q0 59 24 93t69 38v-38q-26 -5 -37 -24t-11 -59v-2v-5h48v-104z" />
    <glyph glyph-name="quotedblright" unicode="&#x201d;" horiz-adv-x="333" 
d="M49 709h93v-101q0 -123 -93 -131v38q26 4 37 23t11 59v3v5h-48v104zM209 709h93v-101q0 -123 -93 -131v38q26 4 37 23t11 59v3v5h-48v104z" />
    <glyph glyph-name="quotedblbase" unicode="&#x201e;" horiz-adv-x="333" 
d="M47 104h93v-101q0 -123 -93 -131v38q26 5 37 23.5t11 58.5v3v5h-48v104zM207 104h93v-101q0 -123 -93 -131v38q26 5 37 23.5t11 58.5v3v5h-48v104z" />
    <glyph glyph-name="dagger" unicode="&#x2020;" 
d="M513 502v-82h-194v-597h-88v597h-193v82h193v207h88v-207h194z" />
    <glyph glyph-name="daggerdbl" unicode="&#x2021;" 
d="M513 502v-82h-194v-307h194v-82h-194v-208h-88v208h-193v82h193v307h-193v82h193v207h88v-207h194z" />
    <glyph glyph-name="bullet" unicode="&#x2022;" horiz-adv-x="350" 
d="M300 345q0 -52 -36.5 -88.5t-88.5 -36.5t-88.5 36.5t-36.5 88.5t36.5 88.5t88.5 36.5t88.5 -36.5t36.5 -88.5z" />
    <glyph glyph-name="ellipsis" unicode="&#x2026;" horiz-adv-x="1000" 
d="M219 104v-104h-104v104h104zM552 104v-104h-104v104h104zM885 104v-104h-104v104h104z" />
    <glyph glyph-name="perthousand" unicode="&#x2030;" horiz-adv-x="1000" 
d="M308 578q0 -63 -43.5 -107t-105.5 -44t-106 44t-44 107q0 62 44 106t106 44t105.5 -44t43.5 -106zM249 578q0 38 -26.5 64t-63.5 26q-38 0 -64.5 -26t-26.5 -64t27 -64.5t64 -26.5q38 0 64 26.5t26 64.5zM633 129q0 -63 -43.5 -107t-105.5 -44t-106 44t-44 107
q0 62 44 106t106 44t105.5 -44t43.5 -106zM574 129q0 37 -27 63.5t-64 26.5t-63.5 -26.5t-26.5 -63.5t26.5 -64t63.5 -27t64 27t27 64zM993 129q0 -63 -43.5 -107t-105.5 -44t-106 44t-44 107q0 62 44 106t106 44t105.5 -44t43.5 -106zM934 129q0 38 -26.5 64t-64.5 26
q-37 0 -63.5 -26.5t-26.5 -63.5t26.5 -64t63.5 -27t64 27t27 64zM492 738h66l-395 -758h-66z" />
    <glyph glyph-name="guilsinglleft" unicode="&#x2039;" horiz-adv-x="333" 
d="M91 227v89l152 122v-83l-106 -83l106 -83v-83z" />
    <glyph glyph-name="guilsinglright" unicode="&#x203a;" horiz-adv-x="333" 
d="M239 317v-89l-154 -122v83l108 83l-108 83v83z" />
    <glyph glyph-name="exclamdbl" unicode="&#x203c;" 
d="M195 729v-338l-22 -223h-40l-21 223v338h83zM195 104v-104h-84v104h84zM444 729v-338l-22 -223h-40l-21 223v338h83zM444 104v-104h-84v104h84z" />
    <glyph glyph-name="overline" unicode="&#x203e;" 
d="M50 821h456v-49h-456v49z" />
    <glyph glyph-name="fraction" unicode="&#x2044;" horiz-adv-x="167" 
d="M278 709h58l-452 -729h-58z" />
    <glyph glyph-name="zerosuperior" unicode="&#x2070;" horiz-adv-x="333" 
d="M316 490q0 -108 -38 -164t-112 -56q-73 0 -111 56t-38 164q0 107 38 163t111 56t111.5 -56t38.5 -163zM166 320q87 0 87 169q0 167 -87 167q-86 0 -86 -167q0 -169 86 -169z" />
    <glyph glyph-name="foursuperior" unicode="&#x2074;" horiz-adv-x="333" 
d="M195 384h-188v59l204 266h46v-272h67v-53h-67v-100h-62v100zM195 437v170h-2l-127 -170h129z" />
    <glyph glyph-name="fivesuperior" unicode="&#x2075;" horiz-adv-x="333" 
d="M296 709v-58h-187l-15 -107q34 22 78 22q65 0 106.5 -40t41.5 -103q0 -67 -44 -110t-113 -43q-81 0 -124 51q-19 23 -28 72h62q19 -70 89 -70q44 0 69.5 25.5t25.5 68.5q0 44 -26 70t-69 26q-46 0 -81 -39h-56l34 235h237z" />
    <glyph glyph-name="sixsuperior" unicode="&#x2076;" horiz-adv-x="333" 
d="M311 592h-62q-12 63 -73 63q-44 0 -70 -39.5t-26 -104.5v-2q25 23 46.5 32t53.5 9q61 0 100.5 -38.5t39.5 -97.5q0 -62 -42 -103.5t-106 -41.5q-155 0 -155 207q0 112 41 171q44 61 122 61q54 0 88 -30t43 -86zM257 411q0 39 -23 62.5t-61 23.5q-40 0 -64.5 -23.5
t-24.5 -61.5t25 -64t62 -26q38 0 62 25t24 64z" />
    <glyph glyph-name="sevensuperior" unicode="&#x2077;" horiz-adv-x="333" 
d="M325 709v-48l-16 -20q-71 -89 -109.5 -172.5t-56.5 -184.5h-66l6 22q26 96 54 153q43 89 108 175l13 17h-238v58h305z" />
    <glyph glyph-name="eightsuperior" unicode="&#x2078;" horiz-adv-x="333" 
d="M13 404q0 69 72 104q-32 19 -44.5 38t-12.5 48q0 51 38.5 83t99.5 32t99.5 -32t38.5 -83q0 -29 -13 -48.5t-44 -37.5q72 -35 72 -104q0 -60 -42.5 -97t-110.5 -37t-110.5 37t-42.5 97zM91 593q0 -29 20.5 -45.5t54.5 -16.5t54.5 16.5t20.5 45.5t-20.5 46t-54.5 17
t-54.5 -17.5t-20.5 -45.5zM76 402q0 -35 25 -57t65 -22t65 22t25 57t-25 57t-65 22t-65 -22t-25 -57z" />
    <glyph glyph-name="ninesuperior" unicode="&#x2079;" horiz-adv-x="333" 
d="M23 386h62q12 -63 72 -63q45 0 70 38.5t26 108.5q-26 -24 -47 -33t-52 -9q-62 0 -101 38t-39 98q0 63 42 104t107 41q77 0 116 -53q38 -52 38 -154q0 -114 -41 -171q-44 -61 -122 -61q-54 0 -88.5 30.5t-42.5 85.5zM77 567q0 -39 22.5 -62.5t60.5 -23.5q40 0 65 23.5
t25 60.5q0 40 -25 65.5t-63 25.5q-37 0 -61 -25t-24 -64z" />
    <glyph glyph-name="plussuperior" unicode="&#x207a;" horiz-adv-x="350" 
d="M322 512v-46h-124v-124h-46v124h-124v46h124v124h46v-124h124z" />
    <glyph glyph-name="parenleftsuperior" unicode="&#x207d;" horiz-adv-x="200" 
d="M183 767l-1 -1q-83 -132 -83 -276q0 -147 84 -278h-39q-47 59 -74.5 133.5t-27.5 144.5t27.5 145t74.5 132h39z" />
    <glyph glyph-name="parenrightsuperior" unicode="&#x207e;" horiz-adv-x="200" 
d="M17 212l1 1q83 132 83 276q0 147 -84 278h39q47 -59 74.5 -133.5t27.5 -144.5t-27.5 -145t-74.5 -132h-39z" />
    <glyph glyph-name="nsuperior" unicode="&#x207f;" horiz-adv-x="333" 
d="M34 732h54v-43h2q36 52 102 52q48 0 77.5 -23t29.5 -61v-234h-59v214q0 28 -17 44.5t-46 16.5q-38 0 -61 -28.5t-23 -76.5v-170h-59v309z" />
    <glyph glyph-name="trademark" unicode="&#x2122;" horiz-adv-x="1000" 
d="M285 674v-382h-68v382h-154v55h375v-55h-153zM748 292h-70l-119 341h-2v-341h-67v437h94l131 -362h2l130 362h91v-437h-67v341h-2z" />
    <glyph glyph-name="oneeighth" unicode="&#x215b;" horiz-adv-x="834" 
d="M524 120q0 69 72 104q-32 19 -44.5 38t-12.5 48q0 51 38.5 83t99.5 32t99.5 -32t38.5 -83q0 -29 -13 -48.5t-44 -37.5q72 -35 72 -104q0 -60 -42.5 -97t-110.5 -37t-110.5 37t-42.5 97zM602 309q0 -29 20.5 -45.5t54.5 -16.5t54.5 16.5t20.5 45.5t-20.5 46t-54.5 17
t-54.5 -17t-20.5 -46zM587 118q0 -35 25 -57t65 -22t65 22t25 57t-25 57t-65 22t-65 -22t-25 -57zM146 580h-99v45l15 2q56 8 73 20.5t30 61.5h43v-425h-62v296zM629 709h58l-452 -729h-58z" />
    <glyph glyph-name="threeeighths" unicode="&#x215c;" horiz-adv-x="834" 
d="M524 120q0 69 73 104q-32 19 -45 38t-13 48q0 51 38.5 83t99.5 32t99.5 -32t38.5 -83q0 -29 -13 -48.5t-44 -37.5q72 -34 72 -104q0 -60 -42.5 -97t-110.5 -37t-110.5 37t-42.5 97zM602 309q0 -28 20.5 -45t54.5 -17t54.5 16.5t20.5 45.5t-20.5 46t-54.5 17t-54.5 -17.5
t-20.5 -45.5zM587 118q0 -35 25 -57t65 -22t65 22t25 57t-25 57t-65 22t-65 -22t-25 -57zM629 709h58l-452 -729h-58zM121 476v51q64 0 87 12.5t23 46.5t-19.5 52t-55.5 18q-52 0 -73 -35q-9 -18 -9 -54h-62q2 142 143 142q64 0 101.5 -32t37.5 -88q0 -59 -56 -85
q70 -23 70 -100q0 -61 -41.5 -97.5t-112.5 -36.5q-146 0 -152 142h62q2 -46 24 -67.5t67 -21.5q43 0 66.5 21t23.5 59q0 73 -91 73h-24h-9z" />
    <glyph glyph-name="fiveeighths" unicode="&#x215d;" horiz-adv-x="834" 
d="M758 224q72 -35 72 -104q0 -60 -42.5 -97t-110.5 -37t-110.5 37t-42.5 97q0 69 72 104q-32 19 -44.5 38t-12.5 48q0 51 38.5 83t99.5 32t99.5 -32t38.5 -83q0 -29 -13 -48.5t-44 -37.5zM752 309q0 29 -20.5 46t-54.5 17t-54.5 -17t-20.5 -46t20.5 -45.5t54.5 -16.5
t54.5 16.5t20.5 45.5zM677 39q40 0 65 22t25 57t-25 57t-65 22t-65 -22t-25 -57t25 -57t65 -22zM629 709h58l-452 -729h-58zM289 709v-58h-187l-15 -107q34 22 78 22q65 0 106.5 -40t41.5 -103q0 -67 -44 -110t-113 -43q-81 0 -124 51q-19 23 -28 72h62q19 -70 89 -70
q44 0 69.5 25.5t25.5 68.5q0 44 -26 70t-69 26q-46 0 -81 -39h-56l34 235h237z" />
    <glyph glyph-name="seveneighths" unicode="&#x215e;" horiz-adv-x="834" 
d="M524 120q0 69 72 104q-32 19 -44.5 38t-12.5 48q0 51 38.5 83t99.5 32t99.5 -32t38.5 -83q0 -29 -12.5 -48t-44.5 -38q72 -34 72 -104q0 -59 -42.5 -96.5t-110.5 -37.5t-110.5 37t-42.5 97zM602 309q0 -28 20.5 -45t54.5 -17t54.5 16.5t20.5 45.5t-20.5 46t-54.5 17
t-54.5 -17t-20.5 -46zM587 118q0 -35 25 -57t65 -22t65 22t25 57t-25 57t-65 22t-65 -22t-25 -57zM629 709h58l-452 -729h-58zM318 709v-48l-16 -20q-71 -89 -109.5 -172.5t-56.5 -184.5h-66l6 22q26 96 54 153q43 89 108 175l13 17h-238v58h305z" />
    <glyph glyph-name="minus" unicode="&#x2212;" horiz-adv-x="584" 
d="M544 378v-70h-504v70h504z" />
    <glyph glyph-name="radical" unicode="&#x221a;" horiz-adv-x="549" 
d="M0 375h167l49 -197h2l212 643h175v-49h-115l-279 -812l-108 351h-103v64z" />
    <glyph glyph-name="infinity" unicode="&#x221e;" horiz-adv-x="709" 
d="M354 390q28 30 45 46t55 35t78 19q54 0 99.5 -37t45.5 -110q0 -51 -25.5 -86.5t-56.5 -48t-61 -12.5q-41 0 -78.5 18t-55 34.5t-46.5 47.5q-82 -100 -177 -100q-55 0 -100 37t-45 110q0 51 25.5 86.5t56.5 48t61 12.5q98 0 179 -100zM312 343q-23 25 -38.5 39.5t-43.5 29
t-58 14.5q-33 0 -54.5 -24t-21.5 -59t22 -59t55 -24q30 0 59 15t43.5 29t36.5 39zM397 343q23 -26 38 -40t43.5 -28.5t58.5 -14.5q32 0 54 24t22 59q0 34 -21.5 58.5t-55.5 24.5q-30 0 -59 -15t-43.5 -29t-36.5 -39z" />
    <glyph glyph-name="rightangle" unicode="&#x221f;" horiz-adv-x="584" 
d="M544 0h-504v504h64v-440h440v-64z" />
    <glyph glyph-name="intersection" unicode="&#x2229;" horiz-adv-x="584" 
d="M117 0h-64v269q0 99 6 149.5t29 86.5q68 106 204 106q43 0 79.5 -11.5t61 -30t39 -33.5t24.5 -31q23 -36 29 -88.5t6 -147.5v-269h-64v272q0 87 -5.5 127.5t-19.5 65.5q-23 40 -64.5 61t-85.5 21q-46 0 -86.5 -22t-63.5 -61q-25 -42 -25 -192v-272z" />
    <glyph glyph-name="similar" unicode="&#x223c;" horiz-adv-x="584" 
d="M75 283l-55 34q12 22 21.5 36t26 33.5t38 30t45.5 10.5q48 0 108 -30q34 -17 39 -20q94 -47 135 -47q22 0 37 16t39 58l55 -34q-12 -22 -21 -36t-26 -34.5t-38.5 -31t-45.5 -10.5q-47 0 -147 51q-92 46 -135 46q-22 0 -37.5 -16t-38.5 -56z" />
    <glyph glyph-name="approxequal" unicode="&#x2248;" horiz-adv-x="584" 
d="M75 379l-55 34q13 23 21.5 36t26 33.5t38.5 30.5t45 10q52 0 108 -30q34 -17 39 -20q90 -47 135 -47q22 0 37 16t39 58l55 -34q-12 -23 -21.5 -37t-26.5 -34.5t-38 -30.5t-46 -10q-48 0 -146 51q-92 46 -135 46q-22 0 -37.5 -16t-38.5 -56zM75 187l-55 34q12 22 21 35.5
t26 33.5t38.5 30.5t45.5 10.5q49 0 147 -50q94 -47 135 -47q22 0 37 16t39 58l55 -34q-12 -22 -21 -36t-26 -34.5t-38.5 -31t-45.5 -10.5q-51 0 -147 51q-92 46 -135 46q-22 0 -37.5 -16t-38.5 -56z" />
    <glyph glyph-name="notequal" unicode="&#x2260;" horiz-adv-x="584" 
d="M365 471h179v-64h-198l-38 -128h236v-64h-255l-33 -112h-70l33 112h-179v64h198l38 128h-236v64h255l33 112h70z" />
    <glyph glyph-name="equivalence" unicode="&#x2261;" horiz-adv-x="584" 
d="M40 503v64h504v-64h-504zM40 311v64h504v-64h-504zM40 119v64h504v-64h-504z" />
    <glyph glyph-name="lessequal" unicode="&#x2264;" horiz-adv-x="584" 
d="M546 192v-70l-509 233v56l509 233v-70l-417 -191zM42 42v64h504v-64h-504z" />
    <glyph glyph-name="greaterequal" unicode="&#x2265;" horiz-adv-x="584" 
d="M37 192l417 191l-417 191v70l509 -233v-56l-509 -233v70zM37 42v64h504v-64h-504z" />
    <glyph glyph-name="commasuperior" unicode="&#xf6e2;" horiz-adv-x="167" 
d="M52 479h64v-65q0 -70 -64 -71v21q21 1 29 11t8 36v12h-37v56z" />
    <glyph glyph-name="periodsuperior" unicode="&#xf6e8;" horiz-adv-x="167" 
d="M116 479v-56h-64v56h64z" />
    <glyph glyph-name="ff" unicode="&#xfb00;" 
d="M531 524v-68h-86v-456h-84v456h-69v68h69v89q0 56 32.5 87.5t90.5 31.5q23 0 47 -5v-69h-9l-21 1q-56 3 -56 -53v-82h86zM263 524v-68h-86v-456h-84v456h-69v68h69v89q0 56 32.5 87.5t90.5 31.5q23 0 47 -5v-69h-9l-21 1q-56 3 -56 -53v-82h86z" />
    <glyph glyph-name="fi" unicode="&#xfb01;" horiz-adv-x="500" 
d="M252 524v-68h-86v-456h-84v456h-69v68h69v89q0 56 32.5 87.5t90.5 31.5q23 0 47 -5v-69h-9l-21 1q-56 3 -56 -53v-82h86zM436 524v-524h-84v524h84zM436 729v-105h-84v105h84z" />
    <glyph glyph-name="fl" unicode="&#xfb02;" horiz-adv-x="500" 
d="M436 729v-729h-84v729h84zM252 524v-68h-86v-456h-84v456h-69v68h69v89q0 56 32.5 87.5t90.5 31.5q23 0 47 -5v-69h-9l-21 1q-56 3 -56 -53v-82h86z" />
    <glyph glyph-name="ffi" unicode="&#xfb03;" horiz-adv-x="778" 
d="M538 524v-68h-86v-456h-84v456h-69v68h69v89q0 56 32.5 87.5t90.5 31.5q23 0 47 -5v-69h-9l-21 1q-56 3 -56 -53v-82h86zM702 524v-524h-84v524h84zM272 524v-68h-86v-456h-84v456h-69v68h69v89q0 56 32.5 87.5t90.5 31.5q23 0 47 -5v-69h-9l-21 1q-56 3 -56 -53v-82h86z
M702 729v-105h-84v105h84z" />
    <glyph glyph-name="ffl" unicode="&#xfb04;" horiz-adv-x="778" 
d="M272 524v-68h-86v-456h-84v456h-69v68h69v89q0 56 32.5 87.5t90.5 31.5q23 0 47 -5v-69h-9l-21 1q-56 3 -56 -53v-82h86zM702 729v-729h-84v729h84zM538 524v-68h-86v-456h-84v456h-69v68h69v89q0 56 32.5 87.5t90.5 31.5q23 0 47 -5v-69h-9l-21 1q-56 3 -56 -53v-82h86z
" />
    <glyph glyph-name="longdash" horiz-adv-x="1000" 
d="M950 240h-900v72h900v-72z" />
    <glyph glyph-name="zerodot" 
d="M507 343q0 -138 -32 -220q-27 -71 -78.5 -108.5t-121.5 -37.5q-50 0 -93 20.5t-70 57.5q-36 49 -52 117q-17 83 -17 171q0 138 32 220q57 146 200 146q50 0 93 -20.5t70 -57.5q36 -49 52 -117q17 -83 17 -171zM275 50q142 0 142 292q0 289 -142 289t-142 -289
q0 -292 142 -292zM327 395v-104h-104v104h104z" />
    <glyph glyph-name="yuan" 
d="M545 709l-220 -390v-64h170v-51h-170v-204h-88v204h-172v51h172v63l-226 391h85l185 -322l179 322h85z" />
    <glyph glyph-name="Pts" horiz-adv-x="972" 
d="M600 309v-40h-53v-212q0 -17 4.5 -22t21.5 -5q16 0 27 3v-42q-33 -5 -45 -5q-66 0 -66 49v234h-44v40h44v85h58v-85h53zM888 223h-61q-3 50 -62 50q-31 0 -48.5 -12.5t-17.5 -34.5q0 -17 13 -27t44 -17l50 -11q50 -11 72.5 -31.5t22.5 -54.5q0 -45 -37.5 -72t-99.5 -27
q-130 0 -134 106h62q4 -33 21 -46.5t54 -13.5q34 0 53.5 13t19.5 35q0 33 -47 43l-48 12q-60 14 -83.5 33t-23.5 55q0 43 35 69t93 26t89.5 -24.5t32.5 -70.5zM222 309v-309h-93v729h128q108 0 166.5 -55.5t58.5 -158.5q0 -97 -63 -154q-58 -52 -141 -52h-56zM222 391h21
q71 0 107 36q35 35 35 92q0 60 -37.5 94t-104.5 34h-21v-256z" />
    <glyph glyph-name="minussuperior" horiz-adv-x="350" 
d="M322 512v-46h-294v46h294z" />
    <glyph glyph-name="spacenumeric" 
 />
    <glyph glyph-name="micro" 
d="M60 -191v714h88v-303v-26q2 -65 32 -96t92 -31q61 0 94 32q35 35 35 83v31v310h89v-398v-12q-1 -23 7.5 -31t34.5 -8l14 1v-73q-45 -11 -65 -11q-35 0 -57 20q-16 16 -23 49l-10 -11q-55 -61 -128 -61q-34 0 -58.5 15.5t-54.5 56.5h-2v-251h-88z" />
    <glyph glyph-name="dbar" 
d="M494 633h62v-47h-62v-586h-74v59q-72 -82 -169 -82q-101 0 -163 78.5t-62 208.5q0 125 61 200t163 75q97 0 158 -78h2v125h-187v47h187v96h84v-96zM411 258q0 91 -40 145t-106 54q-69 0 -110.5 -54.5t-41.5 -144.5t41.5 -144.5t110.5 -54.5q67 0 106.5 54t39.5 145z" />
    <glyph glyph-name="approxequalalt" horiz-adv-x="584" 
d="M75 352l-55 34q12 22 21.5 36t26 34t38 30.5t45.5 10.5q51 0 147 -51q97 -46 135 -46q23 0 37.5 16t38.5 57l55 -34q-13 -23 -22 -36.5t-26 -34t-38 -30.5t-45 -10q-50 0 -108 31q-13 4 -39 20q-92 46 -135 46q-21 0 -37 -16t-39 -57zM40 189v64h504v-64h-504z" />
    <glyph glyph-name="productdot" horiz-adv-x="250" 
d="M125 404q25 0 43 -18t18 -43t-18 -43t-43 -18t-43 18t-18 43t18 43t43 18z" />
    <glyph glyph-name="zeroslash" 
d="M504 687l-49 -83q52 -87 52 -261q0 -195 -69 -288q-59 -78 -162 -78q-97 0 -155 67l-40 -66l-35 21l49 83q-14 23 -25 54q-27 83 -27 207q0 138 32 220q57 146 200 146q96 0 154 -67l40 66zM400 511l-232 -388q33 -73 107 -73q142 0 142 294q0 101 -17 167zM150 174
l231 387q-34 70 -106 70q-142 0 -142 -289q0 -109 17 -168z" />
    <glyph glyph-name="underscorebroken" 
d="M50 -75h456v-49h-456v49z" />
  </font>
</defs>
</svg>
