<svg width="20" height="20" viewBox="0 0 20 20" fill="none" xmlns="http://www.w3.org/2000/svg">
<path d="M1.66675 8.31663V7.49996C1.66675 3.33329 3.33341 1.66663 7.50008 1.66663H12.5001C16.6667 1.66663 18.3334 3.33329 18.3334 7.49996V12.5C18.3334 16.6666 16.6667 18.3333 12.5001 18.3333H11.6667" stroke="#0D5C63" stroke-width="1.5" stroke-linecap="round" stroke-linejoin="round"/>
<path d="M10.8333 9.16661L15.0083 4.98328H11.6666" stroke="#0D5C63" stroke-width="1.5" stroke-linecap="round" stroke-linejoin="round"/>
<path d="M15.0083 4.98328V8.32494" stroke="#0D5C63" stroke-width="1.5" stroke-linecap="round" stroke-linejoin="round"/>
<path d="M9.16675 13.4584V15.7084C9.16675 17.5834 8.41675 18.3334 6.54175 18.3334H4.29175C2.41675 18.3334 1.66675 17.5834 1.66675 15.7084V13.4584C1.66675 11.5834 2.41675 10.8334 4.29175 10.8334H6.54175C8.41675 10.8334 9.16675 11.5834 9.16675 13.4584Z" stroke="#0D5C63" stroke-width="1.5" stroke-linecap="round" stroke-linejoin="round"/>
</svg>
